<svg width="16" height="16" viewBox="0 0 16 16" fill="none" xmlns="http://www.w3.org/2000/svg">
<path d="M10.3655 11.3632C10.4773 11.3632 10.5918 11.3679 10.7056 11.3614C10.7759 11.3575 10.8203 11.386 10.863 11.4417C10.9381 11.5398 11.02 11.6321 11.099 11.7268C11.2126 11.863 11.3261 11.9994 11.44 12.1352C11.5144 12.2239 11.5899 12.3117 11.6641 12.4004C11.7812 12.5404 11.8972 12.6813 12.0145 12.8211C12.0905 12.9116 12.1682 13.0004 12.2444 13.0909C12.3666 13.2358 12.4882 13.3815 12.6079 13.5242C12.604 13.534 12.6034 13.5369 12.6019 13.5388C12.6006 13.5406 12.5983 13.5425 12.5963 13.5426C12.579 13.5439 12.5617 13.5456 12.5443 13.5456C9.53404 13.5458 6.52375 13.5458 3.5 13.5458C3.52782 13.5059 3.54684 13.474 3.57015 13.4461C3.64763 13.3533 3.72722 13.2626 3.80498 13.1701C3.91577 13.0383 4.02537 12.9053 4.13588 12.7733C4.21181 12.6826 4.28872 12.5929 4.36458 12.5021C4.4784 12.3662 4.59145 12.2295 4.70527 12.0935C4.77789 12.0068 4.85163 11.921 4.92432 11.8343C5.04315 11.6925 5.16197 11.5506 5.2798 11.4079C5.30418 11.3783 5.32932 11.3611 5.3689 11.3622C5.47082 11.365 5.57288 11.3632 5.67494 11.3632C5.69952 11.3632 5.72418 11.3632 5.75256 11.3632C5.78595 11.2825 5.81835 11.2057 5.84962 11.1284C5.92717 10.9366 6.00528 10.7451 6.08036 10.5522C6.0941 10.517 6.11023 10.5003 6.14537 10.5039C6.16016 10.5055 6.17524 10.5041 6.1901 10.5041C7.43411 10.5041 8.67812 10.5041 9.92213 10.5041C9.93206 10.5041 9.94228 10.5057 9.95193 10.5039C10.004 10.4938 10.0272 10.524 10.0455 10.5711C10.1436 10.8224 10.2435 11.0728 10.343 11.3234C10.3478 11.3355 10.3557 11.346 10.3654 11.3632H10.3655ZM12.0422 13.2704C11.9396 13.1473 11.8482 13.0369 11.756 12.9274C11.6782 12.835 11.599 12.7438 11.5213 12.6513C11.4072 12.5155 11.2941 12.3789 11.1805 12.2426C11.0999 12.146 11.0194 12.0492 10.9385 11.9527C10.8625 11.8621 10.7869 11.7709 10.7094 11.6817C10.6935 11.6633 10.6709 11.6421 10.6498 11.6398C10.5942 11.6339 10.5377 11.6378 10.4722 11.6378C10.626 12.0238 10.7746 12.3966 10.9265 12.7777H5.18979C5.26649 12.585 5.342 12.3992 5.41448 12.2121C5.48759 12.0233 5.57147 11.8391 5.63994 11.6374C5.58042 11.6374 5.5333 11.6394 5.48639 11.6367C5.45286 11.6348 5.42976 11.6499 5.40891 11.6749C5.33974 11.7578 5.26994 11.84 5.20071 11.9229C5.08534 12.0609 4.97046 12.1994 4.85487 12.3373C4.77888 12.4279 4.70168 12.5175 4.62582 12.6082C4.54842 12.7008 4.47242 12.7948 4.39487 12.8874C4.31725 12.98 4.23794 13.071 4.16032 13.1636C4.13342 13.1958 4.10926 13.2306 4.07904 13.2704H12.0422ZM10.1854 11.6372H10.0872C8.73602 11.6372 7.38488 11.6372 6.03366 11.6372C6.01627 11.6372 5.99873 11.6388 5.9814 11.637C5.94393 11.6332 5.92301 11.6498 5.90808 11.6875C5.81074 11.9333 5.71129 12.1782 5.61303 12.4237C5.60296 12.4488 5.59634 12.4756 5.58697 12.5056H10.5317C10.4212 12.2103 10.3011 11.9269 10.1853 11.6373L10.1854 11.6372ZM6.04352 11.3542C6.14171 11.3705 10.0137 11.3659 10.0711 11.3494C9.99933 11.1695 9.92847 10.9897 9.85501 10.8112C9.84888 10.7963 9.82606 10.7859 9.80901 10.7803C9.7931 10.7751 9.7745 10.7789 9.7571 10.7789C8.62283 10.7789 7.48855 10.7789 6.35428 10.7789H6.27363C6.19531 10.9746 6.1198 11.1635 6.04352 11.3541V11.3542Z" fill="#E7A827"/>
<path d="M8.06566 2.40039C8.19984 3.61447 8.33401 4.82863 8.46812 6.04241C8.41438 6.0584 7.74455 6.06269 7.64453 6.04721C7.77871 4.83208 7.91282 3.6168 8.04699 2.40144C8.05319 2.40107 8.05946 2.40077 8.06566 2.40039ZM8.17786 5.77742C8.13933 5.42898 8.10144 5.08625 8.06362 4.74345C8.05861 4.74368 8.05361 4.7439 8.04868 4.74413C8.01114 5.08708 7.9736 5.42996 7.9355 5.77742H8.17786Z" fill="#E7A827"/>
<path d="M9.66638 9.78896V10.0383C9.61214 10.0557 6.54269 10.06 6.44922 10.0428V9.79309C6.50155 9.77559 9.5708 9.77056 9.66638 9.78896Z" fill="#E7A827"/>
<path d="M9.48826 9.20258V9.45217C9.43522 9.4693 6.73174 9.47463 6.62891 9.45765V9.20686C6.67934 9.18996 9.38535 9.18463 9.48826 9.20258Z" fill="#E7A827"/>
<path d="M9.30875 8.61238V8.86813C9.25135 8.88413 6.93082 8.89021 6.80636 8.87421C6.80587 8.83193 6.80509 8.78791 6.80481 8.74397C6.80453 8.70199 6.80481 8.65992 6.80481 8.6123H9.30882L9.30875 8.61238Z" fill="#E7A827"/>
<path d="M9.12611 8.03229V8.2936H6.98328C6.97835 8.20843 6.98131 8.1225 6.98173 8.03778C7.03766 8.01983 9.02651 8.01487 9.12611 8.03229Z" fill="#E7A827"/>
<path d="M7.16406 7.45508H8.94718C8.95584 7.54281 8.95021 7.62858 8.95077 7.72022H7.16554C7.15744 7.63339 7.15977 7.54589 7.16413 7.45508H7.16406Z" fill="#E7A827"/>
<path d="M8.76891 6.87215V7.13451H7.34114C7.34071 7.09139 7.34015 7.04745 7.33994 7.00344C7.33973 6.96145 7.33994 6.91946 7.33994 6.87207H8.76891V6.87215Z" fill="#E7A827"/>
<path d="M8.5911 6.28868V6.54976H7.52254C7.51726 6.46466 7.5205 6.37881 7.52071 6.29409C7.57727 6.27786 8.48833 6.27343 8.5911 6.28868Z" fill="#E7A827"/>
</svg>
