<svg width="18" height="21" viewBox="0 0 18 21" fill="none" xmlns="http://www.w3.org/2000/svg">
<path d="M16.7474 12.0293L16.3773 11.8159C16.5439 10.9093 16.5439 9.97995 16.3773 9.07337L16.7474 8.85997C17.032 8.69577 17.2815 8.47712 17.4816 8.21649C17.6817 7.95587 17.8285 7.65839 17.9137 7.34102C17.9988 7.02366 18.0206 6.69263 17.9779 6.36684C17.9351 6.04105 17.8285 5.72687 17.6643 5.44226C17.5001 5.15764 17.2815 4.90815 17.0209 4.70803C16.7602 4.50792 16.4627 4.36109 16.1454 4.27595C15.828 4.1908 15.497 4.169 15.1712 4.21178C14.8454 4.25457 14.5312 4.3611 14.2466 4.52531L13.8757 4.73954C13.1751 4.14095 12.3699 3.67692 11.5008 3.37078V2.94315C11.5008 2.27991 11.2373 1.64383 10.7683 1.17484C10.2993 0.705856 9.66325 0.442383 9 0.442383C8.33675 0.442383 7.70067 0.705856 7.23169 1.17484C6.7627 1.64383 6.49923 2.27991 6.49923 2.94315V3.37078C5.63012 3.67802 4.82525 4.14319 4.12517 4.74287L3.75255 4.52697C3.17774 4.19535 2.49473 4.10565 1.85378 4.27762C1.21284 4.44958 0.666454 4.86911 0.334831 5.44392C0.00320856 6.01874 -0.0864883 6.70174 0.085473 7.34269C0.257434 7.98364 0.676968 8.53002 1.25178 8.86164L1.62189 9.07504C1.45527 9.98162 1.45527 10.911 1.62189 11.8176L1.25178 12.031C0.676968 12.3626 0.257434 12.909 0.085473 13.5499C-0.0864883 14.1909 0.00320856 14.8739 0.334831 15.4487C0.666454 16.0235 1.21284 16.443 1.85378 16.615C2.49473 16.7869 3.17774 16.6972 3.75255 16.3656L4.1235 16.1514C4.82435 16.7501 5.62978 17.2141 6.49923 17.5201V17.9478C6.49923 18.611 6.7627 19.2471 7.23169 19.7161C7.70067 20.1851 8.33675 20.4485 9 20.4485C9.66325 20.4485 10.2993 20.1851 10.7683 19.7161C11.2373 19.2471 11.5008 18.611 11.5008 17.9478V17.5201C12.3699 17.2129 13.1747 16.7477 13.8748 16.1481L14.2475 16.3631C14.8223 16.6947 15.5053 16.7844 16.1462 16.6125C16.7872 16.4405 17.3335 16.021 17.6652 15.4462C17.9968 14.8714 18.0865 14.1884 17.9145 13.5474C17.7426 12.9065 17.323 12.3601 16.7482 12.0285L16.7474 12.0293ZM14.6234 8.88165C14.9057 9.90452 14.9057 10.9847 14.6234 12.0076C14.5741 12.1856 14.5854 12.375 14.6554 12.546C14.7254 12.7169 14.8502 12.8598 15.0102 12.9521L15.9138 13.4739C16.1054 13.5844 16.2452 13.7666 16.3025 13.9802C16.3598 14.1938 16.3298 14.4214 16.2193 14.613C16.1088 14.8046 15.9267 14.9444 15.713 15.0017C15.4994 15.059 15.2718 15.029 15.0802 14.9185L14.1749 14.395C14.0148 14.3023 13.8283 14.2654 13.645 14.2903C13.4616 14.3152 13.2917 14.4005 13.1621 14.5326C12.4201 15.29 11.4854 15.8304 10.4588 16.0955C10.2796 16.1416 10.1208 16.246 10.0075 16.3922C9.89413 16.5385 9.83266 16.7183 9.83276 16.9033V17.9478C9.83276 18.1689 9.74493 18.3809 9.5886 18.5372C9.43228 18.6935 9.22025 18.7814 8.99917 18.7814C8.77808 18.7814 8.56606 18.6935 8.40973 18.5372C8.2534 18.3809 8.16558 18.1689 8.16558 17.9478V16.9041C8.16567 16.7191 8.1042 16.5393 7.99086 16.3931C7.87752 16.2468 7.71874 16.1424 7.53955 16.0964C6.51286 15.8302 5.57839 15.2886 4.83705 14.5301C4.70745 14.398 4.53757 14.3127 4.3542 14.2878C4.17082 14.2629 3.98438 14.2998 3.82424 14.3925L2.92063 14.9152C2.82579 14.9708 2.72089 15.0071 2.61197 15.022C2.50305 15.0368 2.39226 15.03 2.28598 15.0019C2.17969 14.9738 2.08002 14.925 1.99269 14.8582C1.90536 14.7914 1.83211 14.7081 1.77714 14.6129C1.72217 14.5176 1.68658 14.4125 1.67241 14.3035C1.65824 14.1945 1.66577 14.0837 1.69458 13.9776C1.72338 13.8715 1.77288 13.7722 1.84024 13.6853C1.90759 13.5984 1.99147 13.5257 2.08704 13.4714L2.99065 12.9496C3.15066 12.8573 3.27547 12.7144 3.34547 12.5435C3.41548 12.3725 3.42673 12.1831 3.37744 12.0051C3.09515 10.9822 3.09515 9.90202 3.37744 8.87915C3.42584 8.70149 3.41406 8.51281 3.34394 8.34256C3.27381 8.1723 3.14929 8.03006 2.98982 7.93802L2.0862 7.4162C1.89464 7.30566 1.75483 7.12354 1.69753 6.90992C1.64024 6.6963 1.67015 6.46866 1.78069 6.2771C1.89123 6.08553 2.07335 5.94572 2.28697 5.88843C2.50059 5.83113 2.72823 5.86104 2.91979 5.97159L3.82507 6.49508C3.98477 6.58804 4.17083 6.6253 4.35401 6.601C4.53719 6.57671 4.7071 6.49224 4.83705 6.36087C5.57902 5.60342 6.51376 5.06299 7.54038 4.79789C7.72013 4.75168 7.87932 4.6468 7.99272 4.49988C8.10612 4.35296 8.16724 4.1724 8.16641 3.98681V2.94315C8.16641 2.72207 8.25423 2.51004 8.41056 2.35372C8.56689 2.19739 8.77892 2.10956 9 2.10956C9.22108 2.10956 9.43311 2.19739 9.58944 2.35372C9.74577 2.51004 9.83359 2.72207 9.83359 2.94315V3.98681C9.8335 4.17183 9.89497 4.35162 10.0083 4.49787C10.1216 4.64411 10.2804 4.74849 10.4596 4.79456C11.4866 5.0606 12.4214 5.60221 13.1629 6.36087C13.2926 6.49297 13.4624 6.57818 13.6458 6.60309C13.8292 6.62799 14.0156 6.59116 14.1758 6.49841L15.0794 5.97575C15.1742 5.92016 15.2791 5.88386 15.388 5.86897C15.497 5.85408 15.6077 5.86088 15.714 5.88898C15.8203 5.91708 15.92 5.96592 16.0073 6.0327C16.0946 6.09948 16.1679 6.18287 16.2229 6.27807C16.2778 6.37328 16.3134 6.47842 16.3276 6.58743C16.3418 6.69645 16.3342 6.80719 16.3054 6.91329C16.2766 7.01938 16.2271 7.11873 16.1598 7.20561C16.0924 7.29249 16.0085 7.3652 15.913 7.41953L15.0094 7.94136C14.8502 8.03364 14.726 8.17599 14.6562 8.34623C14.5864 8.51646 14.5748 8.70501 14.6234 8.88248V8.88165Z" fill="black"/>
</svg>
