<svg width="15" height="21" viewBox="0 0 15 21" fill="none" xmlns="http://www.w3.org/2000/svg">
<path d="M7.43311 20.2866C8.07241 20.2797 8.68364 19.9812 9.13434 19.4557L14.3595 13.4147C14.5859 13.1509 14.7129 12.794 14.7129 12.422C14.7129 12.0499 14.5859 11.693 14.3595 11.4292C14.2466 11.2972 14.1122 11.1925 13.9641 11.121C13.816 11.0495 13.6572 11.0127 13.4968 11.0127C13.3364 11.0127 13.1775 11.0495 13.0294 11.121C12.8814 11.1925 12.747 11.2972 12.634 11.4292L8.64827 16.0621L8.64827 1.98043C8.64827 1.60696 8.52025 1.24879 8.29236 0.984707C8.06448 0.720625 7.75539 0.572265 7.43311 0.572265C7.11083 0.572265 6.80175 0.720625 6.57387 0.984707C6.34598 1.24879 6.21795 1.60696 6.21795 1.98043L6.21795 16.0621L2.22007 11.4292C1.99286 11.164 1.68407 11.0143 1.36161 11.013C1.03915 11.0117 0.729439 11.1589 0.50062 11.4222C0.271801 11.6855 0.14261 12.0433 0.141471 12.417C0.140332 12.7907 0.267337 13.1496 0.494545 13.4147L5.71974 19.4557C6.17342 19.9846 6.78959 20.2834 7.43311 20.2866Z" fill="#121212"/>
</svg>
