<?xml version="1.0" encoding="UTF-8"?>
<svg id="_Слой_1" data-name="Слой 1" xmlns="http://www.w3.org/2000/svg" viewBox="0 0 7391.2 3033.15">
  <defs>
    <style>
      .cls-1 {
        fill: #e7a827;
      }

      .cls-2 {
        fill: #0e0e0e;
      }
    </style>
  </defs>
  <g>
    <g>
      <path class="cls-2" d="M3185.73,817.92s40.01-24.11,38.98-64.11v-42.19s-15.76-86.03-113.46-86.03-319.08-.73-319.08-.73v12.06s28.76,4.02,35.34,35.43v338.63s-3.81,24.84-34.64,31.78v12.78h313.54s153.13-2.56,153.13-118.17v-15.89s4.68-70.14-73.79-103.56Zm-269.71-147.4s101.34-1.1,159.54-1.1,57.68,49.32,57.68,49.32v32.88c0,43.83-51.45,50.41-51.45,50.41h-165.78v-131.51Zm243.04,277.08c0,53.68-57.56,61.73-57.56,61.73h-185.47v-161.03s113.38-1.34,178.5-1.34,64.54,60.39,64.54,60.39v40.26Z"/>
      <path d="M3630.77,624.86c-146.38,0-265.04,96.41-265.04,215.34s118.66,215.34,265.04,215.34,265.04-96.41,265.04-215.34-118.66-215.34-265.04-215.34Zm0,388.99c-90.96,0-164.69-76.13-164.69-170.04s73.73-170.04,164.69-170.04,164.69,76.13,164.69,170.04-73.73,170.04-164.69,170.04Z"/>
      <path d="M3995.38,624.86l-8.31,101.29h8.31s18.71-53.2,59.59-53.2h118.49v337.41s-5.54,31.34-33.95,31.34v13.85h158.67v-11.84s-34.65-12.94-34.65-33.16v-338.32h120.05s54.57,14.76,54.57,54.11h11.95l-10.91-101.11-443.8-.36Z"/>
      <path class="cls-2" d="M4991.61,954.7l-167.86-329.84h-117.71v13.38s22.17-.82,38.37,18.29l-175.3,334.94s-31.18,50.24-58.2,50.24v13.83h160.06v-13.47s-46.25-18.02-33.78-46.96l37.94-72.63h206.83l37.94,69.35s14.03,27.85-35.86,49.69v13.11h189.16v-12.56s-50.93-12.01-81.59-87.37Zm-290.15-81.19l78.3-154.36,79.34,154.36h-157.63Z"/>
      <path class="cls-2" d="M7083.83,954.7l-167.86-329.84h-117.71v13.38s22.17-.82,38.37,18.29l-175.31,334.94s-31.18,50.24-58.2,50.24v13.83h160.06v-13.47s-46.25-18.02-33.78-46.96l37.94-72.63h206.83l37.94,69.35s14.03,27.85-35.86,49.69v13.11h189.16v-12.56s-50.93-12.01-81.59-87.37Zm-290.15-81.19l78.3-154.36,79.34,154.36h-157.64Z"/>
      <path d="M5191.68,681.48v316.73s1.04,35.5-38.46,44.78v12.56h136.68v-12.83s-29.62-2.46-36.55-42.87v-271.23l320.12,326.56h63.75v-379.17s1.73-27.49,35.68-38.41v-12.74h-136.5v13.47s32.57,4.73,37.76,40.05v248.65l-295.7-302.08h-126.02v13.38s37.16,8.74,39.24,43.14Z"/>
      <path d="M5831.58,670.37v346.92s-12.47,27.39-34.99,27.39v10.86h162.14v-11.64s-33.61-8.9-33.61-27.16v-347.24s1.78-25.61,35.16-31.09v-13.56h-163.96v13.56s35.25,4.2,35.25,31.95Z"/>
      <path d="M6518.94,651.18l-12.99,97.65-8.83-1.04s-16.63-62.66-114.33-79.89h-53.01s-143.43,21.93-156.94,154.56c-13.51,132.63,118.14,186.59,156.94,187.98s124.03,9.75,184.31-89.12h10.74l-6.93,85.64s-91.12,61.96-223.46,45.95c-132.34-16.01-207.87-109.31-217.57-173.36-9.7-64.05-4.85-174.75,129.57-230.45,134.42-55.7,312.5,2.09,312.5,2.09Z"/>
    </g>
    <g>
      <path d="M2792.5,1389.73v11.65s36.03,8.01,36.03,33.14v340.54s-11.09,32.05-36.38,32.05v13.11h356.5l21.13-105.62h-10.05s-14.2,45.89-62.71,59.37h-171.15l-6.24-5.1v-333.98s10.74-32.6,36.2-32.6v-12.75l-163.35,.18Z"/>
      <path d="M3253.8,1390.08v13.27s34.82,7.43,34.82,38.22v192.17s8.31,173.06,197.48,185.8c189.16,12.74,219.3-156.46,219.3-170.94v-214.47s18.19-30.79,37.94-30.79v-12.21h-136.16v13.27s28.06,4.25,33.26,31.85v216.06c0,14.28-17.84,103.16-104.46,117.32,0,0-121.26,20.53-152.44-139.44v-198.19s9.35-23.71,32.91-28.67v-13.8l-162.66,.53Z"/>
      <path d="M4376.31,1390.08v13.27s34.82,7.43,34.82,38.22v192.17s8.31,173.06,197.48,185.8c189.16,12.74,219.3-156.46,219.3-170.94v-214.47s18.19-30.79,37.94-30.79v-12.21h-136.16v13.27s28.06,4.25,33.26,31.85v216.06c0,14.28-17.84,103.16-104.46,117.32,0,0-121.26,20.53-152.44-139.44v-198.19s9.35-23.71,32.91-28.67v-13.8l-162.66,.53Z"/>
      <path d="M3813.5,1389.55v12.05s10.91-.37,35.86,19.35c24.94,19.72,157.46,188.41,157.46,188.41l-135.64,147.88s-27.54,35.6-64.96,49.84v12.05h137.71v-10.41s-31.18-9.31-22.87-22.46l124.46-131.18,109.39,127.89s5.2,15.34-18.19,23.55v13.69h170.45v-11.5s-48.85-23.55-63.92-54.77l-140.83-162.67,137.19-143.5s30.66-39.44,56.13-45.46v-12.05h-133.04v10.41s21.83,6.02,24.42,17.53l-118.49,128.16-107.57-124.33s-3.12-14.79,24.42-20.27v-12.05l-172.01-.18Z"/>
      <path d="M4978.61,1390.64v11.29s29.62,5.82,34.99,35.68v332.07s-.69,25.53-34.86,38.77v9.56h157.98v-9.42s-25.2-9.01-34.82-35.09v-330.61s.74-8.37,5.93-9.65c5.2-1.27,135.81,0,135.81,0,0,0,47.81,13.11,57.51,60.8,0,0,10.57,85.19-55.17,85.19h-136.42v18.93l207.87,222.08h125.07v-12.74s-30.75-15.29-56.73-40.14l-134.47-142.12s133.34,1.68,147.2-98.07v-37.86s-4.85-80.82-117.79-99.75l-302.11,1.09Z"/>
      <path d="M5504.53,1390.09v11.32s18.02-1.1,40.88,23.73l176.34,217.99v122.5s-1.56,38.16-37.94,42.17v12.41h163.35v-12.32s-29.54-10.41-35.77-29.58v-155.82l173.14-195.9s15.24-22.82,41.4-25.01v-12.05h-142.56v12.23s39.67,6.76,18.71,30.49l-124.46,142.31h-4.42l-113.29-139.94s-21.83-19.99,15.85-33.14v-11.5l-171.23,.09Z"/>
    </g>
    <g>
      <path class="cls-1" d="M4102.28,2348.97l-96.54-191.7h-67.7v7.78s12.75-.48,22.07,10.63l-100.83,194.66s-17.93,29.2-33.48,29.2v8.04h92.06v-7.83s-26.6-10.47-19.43-27.3l21.82-42.21h118.96l21.82,40.31s8.07,16.19-20.62,28.88v7.62h108.8v-7.3s-29.29-6.98-46.93-50.78Zm-166.89-47.19l45.03-89.71,45.63,89.71h-90.67Z"/>
      <path class="cls-1" d="M3177.27,2184.42v201.63s-5.07,15.92-14.21,15.92v6.31h65.86v-6.77s-13.65-5.17-13.65-15.79v-201.81s.72-14.88,14.28-18.07v-7.88h-66.59v7.88s14.32,2.44,14.32,18.57Z"/>
      <path class="cls-1" d="M2792.16,2157.78v8.54s15.85,2.53,29.36,19.78l112.16,221.99h31.87l110.17-217.19s9.35-18.13,33.26-24.4v-8.54h-79.47v8.54s24.12,6.36,17.11,20.39l-87.83,175.36-87.91-177.71s-3.38-9.54,20.4-18.43v-8.32h-99.13Z"/>
      <path class="cls-1" d="M3313.39,2157.53v8.88s16.11,1.04,21.57,16.97v197.92s-.78,15.14-21.57,18.63v7.66h204.41l11.43-56.4h-6.93s-5.89,21.93-32.91,33.07h-109.13l-6.06-7.4v-193.48s6.24-13.93,22-17.23v-8.88l-82.8,.26Z"/>
      <path class="cls-1" d="M3587.78,2157.53v8.88s16.11,1.04,21.57,16.97v197.92s-.78,15.14-21.57,18.63v7.66h204.41l11.43-56.4h-6.93s-5.89,21.93-32.91,33.07h-109.13l-6.06-7.4v-193.48s6.24-13.93,22-17.23v-8.88l-82.8,.26Z"/>
      <path class="cls-1" d="M4391.9,2222.79v-54.34h-8.66l-.17,2.55h-7.54s-39.06-28.7-129.49-7.3-58.9,125.31,14.2,123.95c0,0,93.2,17.32,109.13,44.83,15.94,27.51-32.57,62.49-98.39,54-65.83-8.49-74.4-52.47-74.4-52.47h-8.06v48.65s17.15,17.83,58.2,23.43h89.12s59.5-8.91,71.72-53.49c12.21-44.57-30.92-75.9-30.92-75.9,0,0-37.68-21.9-112.77-35.66-75.09-13.75,11.61-108.25,107.23-43.72,0,0,13.68,13.24,15.76,25.81l5.02-.34Z"/>
    </g>
  </g>
  <g>
    <path class="cls-1" d="M1965.28,2321.98c28.33,0,57.32,1.12,86.17-.41,17.83-.95,29.07,5.83,39.89,19.08,19.04,23.31,39.78,45.22,59.81,67.73,28.79,32.35,57.53,64.76,86.39,97.05,18.84,21.08,37.97,41.91,56.79,63.02,29.66,33.25,59.06,66.73,88.77,99.94,19.25,21.52,38.96,42.62,58.26,64.09,30.97,34.45,61.76,69.05,92.08,102.98-.98,2.33-1.12,2.99-1.5,3.47-.34,.42-.92,.88-1.43,.91-4.39,.3-8.78,.71-13.17,.71-762.72,.03-1525.44,.03-2291.56,.03,7.04-9.47,11.87-17.07,17.78-23.7,19.63-22.03,39.8-43.59,59.49-65.57,28.07-31.32,55.84-62.91,83.85-94.28,19.23-21.55,38.72-42.87,57.95-64.42,28.83-32.31,57.49-64.78,86.33-97.09,18.4-20.62,37.08-40.99,55.5-61.6,30.11-33.69,60.2-67.4,90.06-101.31,6.18-7.02,12.55-11.12,22.57-10.85,25.83,.68,51.69,.23,77.53,.22,6.24,0,12.47,0,19.66,0,8.45-19.16,16.66-37.42,24.59-55.79,19.65-45.57,39.45-91.07,58.47-136.89,3.47-8.36,7.57-12.34,16.47-11.47,3.75,.37,7.56,.05,11.34,.05,315.2,0,630.39,0,945.59,0,2.52,0,5.11,.38,7.55-.06,13.2-2.4,19.07,4.78,23.72,15.96,24.84,59.71,50.15,119.22,75.38,178.76,1.21,2.85,3.19,5.37,5.67,9.44Zm424.82,453.14c-26.01-29.25-49.15-55.46-72.51-81.49-19.71-21.97-39.8-43.62-59.49-65.61-28.89-32.27-57.57-64.73-86.35-97.1-20.43-22.97-40.83-45.97-61.31-68.89-19.25-21.55-38.4-43.19-58.03-64.39-4.05-4.38-9.76-9.42-15.12-9.95-14.08-1.39-28.4-.47-44.99-.47,38.96,91.69,76.62,180.29,115.09,270.83H653.9c19.43-45.78,38.57-89.92,56.93-134.38,18.52-44.86,39.78-88.64,57.12-136.56-15.09,0-27.02,.46-38.9-.16-8.5-.44-14.35,3.13-19.64,9.07-17.53,19.7-35.21,39.25-52.75,58.93-29.23,32.8-58.34,65.7-87.62,98.45-19.25,21.54-38.82,42.81-58.04,64.38-19.62,22.01-38.87,44.35-58.52,66.33-19.67,22-39.76,43.64-59.42,65.64-6.82,7.64-12.95,15.9-20.59,25.37h2017.64Zm-470.45-388.03h-24.88c-342.35,0-684.7,0-1027.05,0-4.41,0-8.86,.35-13.23-.06-9.5-.9-14.79,3.03-18.57,11.99-24.66,58.41-49.86,116.6-74.75,174.91-2.55,5.99-4.22,12.35-6.61,19.46H2007.39c-27.99-70.18-58.41-137.48-87.74-206.31Zm-1049.43-67.26c24.87,3.89,1005.93,2.79,1020.48-1.12-18.19-42.77-36.14-85.47-54.76-127.88-1.55-3.54-7.33-6-11.65-7.33-4.04-1.24-8.74-.33-13.15-.33-287.39,0-574.79,0-862.18,0h-20.44c-19.84,46.51-38.97,91.37-58.3,136.67Z"/>
    <path class="cls-1" d="M1382.93,192.57c33.99,288.47,67.98,576.94,101.97,865.33-13.61,3.8-183.34,4.82-208.67,1.14,33.99-288.71,67.98-577.47,101.97-866.22,1.58-.08,3.15-.17,4.73-.25Zm28.44,802.37c-9.76-82.78-19.35-164.23-28.95-245.67-1.26,.05-2.53,.11-3.79,.16-9.52,81.48-19.03,162.96-28.67,245.51h61.41Z"/>
    <path class="cls-1" d="M1788.13,1947.98v59.25c-13.75,4.12-791.46,5.16-815.14,1.07v-59.34c13.26-4.16,790.91-5.36,815.14-.98Z"/>
    <path class="cls-1" d="M1742.82,1808.7v59.3c-13.44,4.07-698.42,5.33-724.47,1.31v-59.58c12.78-4.01,698.4-5.28,724.47-1.02Z"/>
    <path class="cls-1" d="M1697.07,1668.54v60.77c-14.55,3.8-602.51,5.24-634.04,1.45-.13-10.05-.32-20.5-.39-30.95-.07-9.98-.01-19.97-.01-31.28h634.44Z"/>
    <path class="cls-1" d="M1651.58,1530.79v62.09h-542.94c-1.25-20.24-.51-40.65-.39-60.79,14.17-4.26,518.09-5.44,543.32-1.3Z"/>
    <path class="cls-1" d="M1154.23,1393.55h451.78c2.19,20.85,.77,41.22,.91,62.99h-452.32c-2.05-20.63-1.47-41.42-.37-62.99Z"/>
    <path class="cls-1" d="M1560.89,1255.17v62.34h-361.75c-.1-10.24-.25-20.69-.3-31.13-.05-9.97-.01-19.95-.01-31.21h362.06Z"/>
    <path class="cls-1" d="M1515.48,1116.49v62.03h-270.74c-1.34-20.22-.51-40.62-.47-60.75,14.33-3.86,245.17-4.9,271.2-1.28Z"/>
  </g>
</svg>