<svg width="48" height="48" viewBox="0 0 48 48" fill="none" xmlns="http://www.w3.org/2000/svg">
<path d="M24.272 38.208C23.248 38.208 22.226 37.8661 21.372 37.1822C18.57 34.9387 13.27 29.4778 13.27 24.8667C13.27 21.0835 16.186 18.0081 19.77 18.0081C21.55 18.0081 23.12 18.644 24.27 19.7117C25.42 18.646 26.99 18.0081 28.77 18.0081C32.354 18.0081 35.27 21.0855 35.27 24.8667C35.27 29.4798 29.972 34.9407 27.17 37.1842C26.316 37.8681 25.294 38.208 24.272 38.208ZM19.77 22.0053C18.392 22.0053 17.27 23.289 17.27 24.8647C17.27 27.4162 21.104 31.8433 23.872 34.0588C24.108 34.2528 24.43 34.2528 24.67 34.0588C27.438 31.8433 31.27 27.4162 31.27 24.8627C31.27 23.285 30.148 22.0033 28.77 22.0033C27.526 22.0033 26.27 22.7511 26.27 24.4208C26.27 25.5246 25.376 26.4204 24.27 26.4204C23.164 26.4204 22.27 25.5246 22.27 24.4208C22.27 22.6352 20.922 22.0033 19.77 22.0033V22.0053ZM38 48H10C4.486 48 0 43.5149 0 38.002V19.4538C0 16.1265 1.646 13.0291 4.406 11.1655L18.406 1.7194C21.802 -0.572134 26.196 -0.574133 29.596 1.7194L43.596 11.1635C46.354 13.0251 48 16.1225 48 19.4518V38C48 43.5129 43.514 48 38 48ZM24.002 4.00494C22.832 4.00494 21.664 4.34887 20.644 5.03673L6.644 14.4808C4.988 15.5986 4 17.4562 4 19.4538V38.002C4 41.3094 6.692 44.0008 10 44.0008H38C41.308 44.0008 44 41.3094 44 38.002V19.4538C44 17.4562 43.012 15.5966 41.358 14.4808L27.358 5.03673C26.338 4.34887 25.17 4.00494 24.002 4.00494Z" fill="#E7A827"/>
</svg>
