<svg width="40" height="40" viewBox="0 0 40 40" fill="none" xmlns="http://www.w3.org/2000/svg">
<circle cx="20" cy="20" r="20" fill="#E7A827"/>
<path fill-rule="evenodd" clip-rule="evenodd" d="M27.2075 12.9419C25.3131 11.0459 22.7946 10.0008 20.1116 10C14.5828 10 10.083 14.499 10.0804 20.0303C10.0796 21.7982 10.5418 23.5238 11.4198 25.0454L9.99609 30.2428L15.3132 28.8477C16.7783 29.6473 18.428 30.0682 20.1065 30.069H20.1107C25.6387 30.069 30.1393 25.5692 30.1419 20.0379C30.1435 17.3582 29.101 14.8372 27.2075 12.9419ZM20.1116 28.3745H20.1082C18.6119 28.3745 17.1452 27.9722 15.8648 27.2122L15.5603 27.0317L12.405 27.8592L13.2476 24.7823L13.0494 24.4668C12.2144 23.1392 11.7741 21.605 11.7749 20.0303C11.7766 15.4335 15.5173 11.6936 20.1158 11.6936C22.3425 11.6936 24.4359 12.5624 26.0098 14.138C27.5837 15.7144 28.4499 17.8086 28.4491 20.0362C28.4465 24.6347 24.7067 28.3745 20.1116 28.3745ZM24.6847 22.1305C24.4342 22.0048 23.202 21.3984 22.9717 21.3149C22.7423 21.2314 22.5753 21.1892 22.4074 21.4397C22.2396 21.6902 21.7605 22.2553 21.6137 22.4231C21.4678 22.5901 21.3211 22.6112 21.0706 22.4856C20.8201 22.3599 20.012 22.0959 19.0547 21.2415C18.31 20.5768 17.8064 19.7562 17.6605 19.5048C17.5146 19.2535 17.6453 19.1185 17.7702 18.9937C17.8832 18.8815 18.0207 18.701 18.1463 18.5543C18.2729 18.4092 18.3142 18.3046 18.3985 18.1367C18.482 17.9697 18.4407 17.823 18.3774 17.6973C18.3142 17.5725 17.8132 16.3385 17.6048 15.8367C17.4016 15.3475 17.1949 15.4141 17.0406 15.4065C16.8947 15.3989 16.7277 15.3981 16.5598 15.3981C16.3928 15.3981 16.1212 15.4605 15.8918 15.7118C15.6624 15.9632 15.0146 16.5696 15.0146 17.8027C15.0146 19.0367 15.9129 20.2285 16.0377 20.3955C16.1625 20.5625 17.8047 23.0945 20.3191 24.18C20.9171 24.4381 21.3843 24.5925 21.7479 24.708C22.3484 24.8987 22.8949 24.8717 23.3268 24.8076C23.8084 24.7359 24.8096 24.2011 25.0187 23.6158C25.2279 23.0304 25.2279 22.5277 25.1647 22.424C25.1023 22.3186 24.9352 22.2561 24.6847 22.1305Z" fill="white"/>
</svg>
