<svg width="48" height="46" viewBox="0 0 48 46" fill="none" xmlns="http://www.w3.org/2000/svg">
<path d="M38 0H10C4.486 0 0 4.62194 0 10.303V35.0303C0 40.7114 4.486 45.3333 10 45.3333H38C43.514 45.3333 48 40.7114 48 35.0303V10.303C48 4.62194 43.514 0 38 0ZM44 35.0303C44 38.4385 41.308 41.2121 38 41.2121H10C6.692 41.2121 4 38.4385 4 35.0303V10.303C4 6.89479 6.692 4.12121 10 4.12121H38C41.308 4.12121 44 6.89479 44 10.303V35.0303ZM38 12.3636C38 13.5011 37.104 14.4242 36 14.4242H22C20.896 14.4242 20 13.5011 20 12.3636C20 11.2262 20.896 10.303 22 10.303H36C37.104 10.303 38 11.2262 38 12.3636ZM16 12.3636C16 14.0698 14.656 15.4545 13 15.4545C11.344 15.4545 10 14.0698 10 12.3636C10 10.6575 11.344 9.27273 13 9.27273C14.656 9.27273 16 10.6575 16 12.3636ZM38 22.6667C38 23.8041 37.104 24.7273 36 24.7273H22C20.896 24.7273 20 23.8041 20 22.6667C20 21.5292 20.896 20.6061 22 20.6061H36C37.104 20.6061 38 21.5292 38 22.6667ZM16 22.6667C16 24.3729 14.656 25.7576 13 25.7576C11.344 25.7576 10 24.3729 10 22.6667C10 20.9605 11.344 19.5758 13 19.5758C14.656 19.5758 16 20.9605 16 22.6667ZM38 32.9697C38 34.1072 37.104 35.0303 36 35.0303H22C20.896 35.0303 20 34.1072 20 32.9697C20 31.8322 20.896 30.9091 22 30.9091H36C37.104 30.9091 38 31.8322 38 32.9697ZM16 32.9697C16 34.6759 14.656 36.0606 13 36.0606C11.344 36.0606 10 34.6759 10 32.9697C10 31.2635 11.344 29.8788 13 29.8788C14.656 29.8788 16 31.2635 16 32.9697Z" fill="#E7A827"/>
</svg>
