<?xml version="1.0" encoding="UTF-8"?>
<svg id="_Слой_1" data-name="Слой 1" xmlns="http://www.w3.org/2000/svg" viewBox="0 0 2626.56 3168.68">
  <defs>
    <style>
      .cls-1 {
        fill: #e7a827;
      }

      .cls-2 {
        fill: #0e0e0e;
      }
    </style>
  </defs>
  <path class="cls-2" d="M339.07,2094.22s21.74-13.1,21.18-34.83v-22.92s-8.56-46.74-61.65-46.74-173.36-.4-173.36-.4v6.55s15.62,2.18,19.2,19.25v183.98s-2.07,13.5-18.82,17.27v6.95h170.35s83.2-1.39,83.2-64.21v-8.63s2.54-38.11-40.09-56.27Zm-146.54-80.08s55.06-.6,86.68-.6,31.34,26.79,31.34,26.79v17.86c0,23.82-27.95,27.39-27.95,27.39h-90.07v-71.45Zm132.05,150.55c0,29.16-31.27,33.54-31.27,33.54h-100.77v-87.49s61.6-.73,96.98-.73,35.07,32.81,35.07,32.81v21.87Z"/>
  <path d="M580.87,1989.32c-79.53,0-144,52.38-144,117s64.47,117,144,117,144-52.38,144-117-64.47-117-144-117Zm0,211.34c-49.42,0-89.48-41.36-89.48-92.38s40.06-92.38,89.48-92.38,89.48,41.36,89.48,92.38-40.06,92.38-89.48,92.38Z"/>
  <path d="M778.98,1989.32l-4.52,55.04h4.52s10.16-28.9,32.38-28.9h64.38v183.32s-3.01,17.03-18.45,17.03v7.52h86.21v-6.43s-18.82-7.03-18.82-18.02v-183.81h65.22s29.65,8.02,29.65,29.4h6.49l-5.93-54.94-241.13-.2Z"/>
  <path class="cls-2" d="M1320.25,2168.53l-91.2-179.21h-63.95v7.27s12.05-.45,20.85,9.94l-95.25,181.98s-16.94,27.3-31.62,27.3v7.52h86.96v-7.32s-25.13-9.79-18.35-25.52l20.61-39.46h112.38l20.61,37.68s7.62,15.13-19.48,27v7.12h102.78v-6.82s-27.67-6.53-44.33-47.47Zm-157.65-44.11l42.54-83.87,43.11,83.87h-85.65Z"/>
  <path class="cls-2" d="M2457,2168.53l-91.2-179.21h-63.95v7.27s12.05-.45,20.85,9.94l-95.25,181.98s-16.94,27.3-31.62,27.3v7.52h86.96v-7.32s-25.13-9.79-18.35-25.52l20.61-39.46h112.38l20.61,37.68s7.62,15.13-19.48,27v7.12h102.78v-6.82s-27.67-6.53-44.33-47.47Zm-157.65-44.11l42.54-83.87,43.11,83.87h-85.65Z"/>
  <path d="M1428.95,2020.08v172.09s.56,19.29-20.89,24.33v6.82h74.26v-6.97s-16.09-1.34-19.86-23.29v-147.36l173.93,177.43h34.64v-206.01s.94-14.93,19.39-20.87v-6.92h-74.16v7.32s17.69,2.57,20.52,21.76v135.1l-160.66-164.13h-68.47v7.27s20.19,4.75,21.32,23.44Z"/>
  <path d="M1776.62,2014.05v188.49s-6.78,14.88-19.01,14.88v5.9h88.09v-6.32s-18.26-4.84-18.26-14.76v-188.66s.96-13.91,19.11-16.89v-7.37h-89.08v7.37s19.15,2.28,19.15,17.36Z"/>
  <path d="M2150.08,2003.62l-7.06,53.05-4.8-.57s-9.04-34.05-62.12-43.41h-28.8s-77.93,11.92-85.27,83.98,64.19,101.38,85.27,102.14,67.39,5.3,100.14-48.42h5.84l-3.76,46.53s-49.51,33.67-121.41,24.97c-71.91-8.7-112.94-59.39-118.21-94.19-5.27-34.8-2.64-94.95,70.4-125.21,73.04-30.26,169.79,1.13,169.79,1.13Z"/>
  <path d="M433.75,2385.88v6.33s19.58,4.35,19.58,18.01v185.02s-6.02,17.41-19.76,17.41v7.12h193.69l11.48-57.39h-5.46s-7.72,24.93-34.07,32.26h-92.99l-3.39-2.77v-181.46s5.84-17.71,19.67-17.71v-6.93l-88.75,.1Z"/>
  <path d="M684.39,2386.06v7.21s18.92,4.04,18.92,20.77v104.41s4.52,94.03,107.29,100.95,119.15-85.01,119.15-92.87v-116.53s9.88-16.73,20.61-16.73v-6.63h-73.98v7.21s15.25,2.31,18.07,17.31v117.39c0,7.76-9.69,56.05-56.75,63.74,0,0-65.88,11.15-82.82-75.76v-107.68s5.08-12.88,17.88-15.58v-7.5l-88.38,.29Z"/>
  <path d="M1294.27,2386.06v7.21s18.92,4.04,18.92,20.77v104.41s4.52,94.03,107.29,100.95,119.15-85.01,119.15-92.87v-116.53s9.88-16.73,20.61-16.73v-6.63h-73.98v7.21s15.25,2.31,18.07,17.31v117.39c0,7.76-9.69,56.05-56.75,63.74,0,0-65.88,11.15-82.82-75.76v-107.68s5.08-12.88,17.88-15.58v-7.5l-88.38,.29Z"/>
  <path d="M988.48,2385.78v6.55s5.93-.2,19.48,10.51c13.55,10.71,85.55,102.37,85.55,102.37l-73.69,80.35s-14.96,19.34-35.29,27.08v6.55h74.82v-5.65s-16.94-5.06-12.42-12.2l67.62-71.27,59.44,69.49s2.82,8.33-9.88,12.8v7.44h92.61v-6.25s-26.54-12.8-34.73-29.76l-76.52-88.38,74.54-77.97s16.66-21.43,30.49-24.7v-6.55h-72.28v5.65s11.86,3.27,13.27,9.52l-64.38,69.63-58.45-67.55s-1.69-8.03,13.27-11.01v-6.55l-93.46-.1Z"/>
  <path d="M1621.52,2386.37v6.13s16.09,3.16,19.01,19.38v180.42s-.38,13.87-18.94,21.07v5.19h85.84v-5.12s-13.69-4.9-18.92-19.06v-179.63s.4-4.55,3.22-5.24,73.79,0,73.79,0c0,0,25.98,7.12,31.25,33.03,0,0,5.74,46.29-29.98,46.29h-74.12v10.29l112.94,120.66h67.95v-6.92s-16.71-8.31-30.82-21.81l-73.06-77.22s72.45,.91,79.98-53.28v-20.57s-2.64-43.91-64-54.2l-164.14,.59Z"/>
  <path d="M1907.26,2386.07v6.15s9.79-.6,22.21,12.9l95.81,118.44v66.56s-.85,20.73-20.61,22.91v6.75h88.75v-6.7s-16.05-5.65-19.44-16.07v-84.66l94.07-106.44s8.28-12.4,22.49-13.59v-6.55h-77.46v6.65s21.55,3.67,10.16,16.57l-67.62,77.32h-2.4l-61.55-76.03s-11.86-10.86,8.61-18v-6.25l-93.04,.05Z"/>
  <path class="cls-1" d="M1585.66,2926.07l-52.45-104.16h-36.78v4.23s6.93-.26,11.99,5.78l-54.78,105.77s-9.74,15.86-18.19,15.86v4.37h50.02v-4.25s-14.45-5.69-10.56-14.83l11.85-22.94h64.63l11.85,21.9s4.38,8.79-11.21,15.69v4.14h59.11v-3.97s-15.92-3.79-25.5-27.59Zm-90.67-25.64l24.47-48.74,24.79,48.74h-49.26Z"/>
  <path class="cls-1" d="M1083.08,2836.67v109.55s-2.75,8.65-7.72,8.65v3.43h35.78v-3.68s-7.42-2.81-7.42-8.58v-109.65s.39-8.09,7.76-9.82v-4.28h-36.18v4.28s7.78,1.33,7.78,10.09Z"/>
  <path class="cls-1" d="M873.84,2822.19v4.64s8.61,1.37,15.95,10.75l60.94,120.61h17.32l59.86-118.01s5.08-9.85,18.07-13.26v-4.64h-43.18v4.64s13.11,3.46,9.29,11.08l-47.72,95.28-47.76-96.55s-1.84-5.19,11.08-10.02v-4.52h-53.86Z"/>
  <path class="cls-1" d="M1157.04,2822.05v4.82s8.75,.57,11.72,9.22v107.53s-.42,8.23-11.72,10.12v4.16h111.06l6.21-30.64h-3.76s-3.2,11.92-17.88,17.97h-59.29l-3.29-4.02v-105.12s3.39-7.57,11.95-9.36v-4.82l-44.99,.14Z"/>
  <path class="cls-1" d="M1306.12,2822.05v4.82s8.75,.57,11.72,9.22v107.53s-.42,8.23-11.72,10.12v4.16h111.06l6.21-30.64h-3.76s-3.2,11.92-17.88,17.97h-59.29l-3.29-4.02v-105.12s3.39-7.57,11.95-9.36v-4.82l-44.99,.14Z"/>
  <path class="cls-1" d="M1743.02,2857.51v-29.52h-4.71l-.09,1.38h-4.09s-21.22-15.59-70.35-3.97-32,68.08,7.72,67.35c0,0,50.64,9.41,59.29,24.36,8.66,14.95-17.69,33.95-53.46,29.34-35.76-4.61-40.42-28.51-40.42-28.51h-4.38v26.43s9.32,9.69,31.62,12.73h48.42s32.33-4.84,38.96-29.06-16.8-41.24-16.8-41.24c0,0-20.47-11.9-61.27-19.37s6.31-58.81,58.26-23.76c0,0,7.44,7.2,8.56,14.02l2.73-.18Z"/>
  <path class="cls-1" d="M1641.46,1403.6c15.87,0,32.12,.63,48.28-.23,9.99-.53,16.29,3.27,22.35,10.69,10.67,13.06,22.29,25.34,33.51,37.95,16.13,18.13,32.24,36.29,48.41,54.38,10.56,11.81,21.28,23.49,31.82,35.31,16.62,18.63,33.09,37.39,49.74,56,10.79,12.06,21.83,23.88,32.65,35.92,17.35,19.3,34.61,38.69,51.6,57.7-.55,1.3-.63,1.68-.84,1.94-.19,.24-.52,.49-.8,.51-2.46,.17-4.92,.4-7.38,.4-427.39,.02-854.78,.02-1284.08,.02,3.95-5.31,6.65-9.56,9.96-13.28,11-12.35,22.3-24.42,33.34-36.74,15.73-17.55,31.29-35.25,46.98-52.83,10.78-12.08,21.7-24.02,32.47-36.1,16.16-18.1,32.21-36.3,48.37-54.4,10.31-11.55,20.78-22.97,31.1-34.52,16.87-18.88,33.74-37.77,50.47-56.77,3.46-3.93,7.03-6.23,12.65-6.08,14.47,.38,28.96,.13,43.45,.13,3.49,0,6.99,0,11.02,0,4.74-10.74,9.34-20.97,13.78-31.26,11.01-25.53,22.1-51.03,32.76-76.71,1.95-4.69,4.24-6.91,9.23-6.43,2.1,.21,4.24,.03,6.35,.03,176.62,0,353.24,0,529.86,0,1.41,0,2.86,.21,4.23-.03,7.4-1.35,10.69,2.68,13.29,8.94,13.92,33.46,28.1,66.8,42.24,100.17,.68,1.6,1.79,3.01,3.18,5.29Zm238.05,253.92c-14.57-16.39-27.54-31.08-40.63-45.66-11.05-12.31-22.3-24.44-33.33-36.76-16.19-18.08-32.26-36.27-48.38-54.41-11.45-12.87-22.88-25.76-34.36-38.6-10.79-12.07-21.52-24.2-32.52-36.08-2.27-2.45-5.47-5.28-8.47-5.58-7.89-.78-15.91-.26-25.21-.26,21.83,51.38,42.93,101.02,64.49,151.76H906.63c10.89-25.66,21.61-50.39,31.9-75.3,10.38-25.14,22.29-49.67,32.01-76.52-8.45,0-15.14,.26-21.8-.09-4.76-.25-8.04,1.75-11,5.08-9.82,11.04-19.73,21.99-29.56,33.02-16.38,18.38-32.69,36.81-49.1,55.17-10.79,12.07-21.75,23.99-32.52,36.07-10.99,12.33-21.78,24.85-32.79,37.17-11.02,12.33-22.28,24.45-33.3,36.78-3.82,4.28-7.25,8.91-11.54,14.21H1879.51Zm-263.62-217.43h-13.94c-191.84,0-383.67,0-575.51,0-2.47,0-4.96,.2-7.42-.03-5.32-.51-8.29,1.7-10.41,6.72-13.82,32.73-27.94,65.33-41.89,98.01-1.43,3.35-2.37,6.92-3.7,10.91h702.03c-15.68-39.32-32.73-77.04-49.17-115.6Zm-588.05-37.69c13.94,2.18,563.67,1.56,571.82-.63-10.19-23.96-20.25-47.89-30.68-71.66-.87-1.98-4.11-3.36-6.53-4.11-2.26-.7-4.9-.19-7.37-.19-161.04,0-322.08,0-483.12,0h-11.45c-11.12,26.06-21.84,51.2-32.67,76.58Z"/>
  <path class="cls-1" d="M1315.14,210.38c19.05,161.64,38.1,323.29,57.14,484.89-7.63,2.13-102.73,2.7-116.93,.64,19.05-161.78,38.09-323.58,57.14-485.39,.88-.05,1.77-.09,2.65-.14Zm15.93,449.61c-5.47-46.39-10.85-92.02-16.22-137.66-.71,.03-1.42,.06-2.12,.09-5.33,45.66-10.66,91.31-16.07,137.57h34.41Z"/>
  <path class="cls-1" d="M1542.2,1194.03v33.2c-7.7,2.31-443.49,2.89-456.76,.6v-33.25c7.43-2.33,443.19-3,456.76-.55Z"/>
  <path class="cls-1" d="M1516.81,1115.98v33.23c-7.53,2.28-391.36,2.99-405.96,.73v-33.39c7.16-2.25,391.35-2.96,405.96-.57Z"/>
  <path class="cls-1" d="M1491.17,1037.44v34.05c-8.15,2.13-337.61,2.94-355.28,.81-.07-5.63-.18-11.49-.22-17.34-.04-5.59,0-11.19,0-17.53h355.51Z"/>
  <path class="cls-1" d="M1465.68,960.25v34.79h-304.23c-.7-11.34-.28-22.78-.22-34.06,7.94-2.39,290.31-3.05,304.45-.73Z"/>
  <path class="cls-1" d="M1186.99,883.35h253.16c1.23,11.68,.43,23.1,.51,35.3h-253.46c-1.15-11.56-.82-23.21-.2-35.3Z"/>
  <path class="cls-1" d="M1414.86,805.81v34.93h-202.71c-.06-5.74-.14-11.59-.17-17.45-.03-5.59,0-11.18,0-17.49h202.88Z"/>
  <path class="cls-1" d="M1389.42,728.1v34.76h-151.71c-.75-11.33-.29-22.76-.26-34.04,8.03-2.16,137.38-2.75,151.97-.72Z"/>
</svg>