<svg width="20" height="16" viewBox="0 0 20 16" fill="none" xmlns="http://www.w3.org/2000/svg">
<path d="M19.2051 5.58114C17.9254 3.49687 15.0143 0 9.90515 0C4.79599 0 1.88495 3.49687 0.605183 5.58114C0.20956 6.22102 0 6.95847 0 7.71078C0 8.46309 0.20956 9.20054 0.605183 9.84042C1.88495 11.9247 4.79599 15.4216 9.90515 15.4216C15.0143 15.4216 17.9254 11.9247 19.2051 9.84042C19.6007 9.20054 19.8103 8.46309 19.8103 7.71078C19.8103 6.95847 19.6007 6.22102 19.2051 5.58114ZM17.7983 8.97652C16.6992 10.7637 14.2115 13.7713 9.90515 13.7713C5.59883 13.7713 3.11108 10.7637 2.01202 8.97652C1.77697 8.59618 1.65247 8.15789 1.65247 7.71078C1.65247 7.26367 1.77697 6.82539 2.01202 6.44504C3.11108 4.65782 5.59883 1.65025 9.90515 1.65025C14.2115 1.65025 16.6992 4.65452 17.7983 6.44504C18.0333 6.82539 18.1578 7.26367 18.1578 7.71078C18.1578 8.15789 18.0333 8.59618 17.7983 8.97652Z" fill="#777777"/>
<path d="M9.90516 3.58521C9.08919 3.58521 8.29154 3.82717 7.61309 4.2805C6.93464 4.73383 6.40585 5.37816 6.09359 6.13202C5.78133 6.88588 5.69963 7.7154 5.85882 8.51569C6.018 9.31598 6.41093 10.0511 6.98791 10.6281C7.56489 11.2051 8.3 11.598 9.10029 11.7572C9.90058 11.9164 10.7301 11.8347 11.484 11.5224C12.2378 11.2101 12.8822 10.6813 13.3355 10.0029C13.7888 9.32444 14.0308 8.52679 14.0308 7.71082C14.0295 6.61704 13.5944 5.56844 12.821 4.79502C12.0475 4.0216 10.9989 3.58652 9.90516 3.58521ZM9.90516 10.1862C9.41558 10.1862 8.93699 10.041 8.52992 9.76902C8.12285 9.49702 7.80557 9.11042 7.61822 8.65811C7.43086 8.20579 7.38184 7.70808 7.47735 7.2279C7.57287 6.74773 7.80862 6.30666 8.15481 5.96047C8.501 5.61428 8.94207 5.37853 9.42224 5.28302C9.90242 5.1875 10.4001 5.23652 10.8524 5.42388C11.3048 5.61123 11.6914 5.92851 11.9634 6.33558C12.2354 6.74265 12.3805 7.22124 12.3805 7.71082C12.3805 8.36733 12.1197 8.99695 11.6555 9.46117C11.1913 9.9254 10.5617 10.1862 9.90516 10.1862Z" fill="#777777"/>
</svg>
