<svg width="36" height="36" viewBox="0 0 36 36" fill="none" xmlns="http://www.w3.org/2000/svg">
<path fill-rule="evenodd" clip-rule="evenodd" d="M18 36C27.9411 36 36 27.9411 36 18C36 8.05887 27.9411 0 18 0C8.05887 0 0 8.05887 0 18C0 27.9411 8.05887 36 18 36ZM19.4025 26.946C23.7045 26.2703 27 22.5465 27 18.0548C27 13.0837 22.9702 9.05475 18 9.05475C13.0297 9.05475 9 13.0845 9 18.0548C9 22.5458 12.2962 26.2688 16.5975 26.9453V20.673H14.3182V18.078H16.5975V16.1003C16.5975 13.851 17.937 12.6082 19.9875 12.6082C20.9692 12.6082 21.9967 12.7838 21.9967 12.7838V14.9932H20.865C19.7505 14.9932 19.4025 15.6847 19.4025 16.395V18.0788H21.8925L21.4942 20.6737H19.4025V26.946Z" fill="#E7A827"/>
</svg>
