<svg width="30" height="30" viewBox="0 0 30 30" fill="none" xmlns="http://www.w3.org/2000/svg">
<path d="M29.6471 27.8667L28.2912 26.5102L26.1133 24.3349L29.6244 20.8219C29.7738 20.6722 29.8832 20.4871 29.9423 20.2839C30.0014 20.0807 30.0084 19.8659 29.9626 19.6593C29.9168 19.4527 29.8197 19.2609 29.6803 19.1018C29.5409 18.9426 29.3636 18.8212 29.1649 18.7487L17.8737 14.65C17.4239 14.4874 16.9372 14.4562 16.4704 14.5603C16.0036 14.6643 15.576 14.8992 15.2378 15.2375C14.8996 15.5758 14.6646 16.0034 14.5605 16.4704C14.4563 16.9374 14.4872 17.4244 14.6496 17.8745L18.7574 29.1716C18.8296 29.3706 18.9506 29.5482 19.1095 29.688C19.2684 29.8278 19.4599 29.9253 19.6664 29.9715C19.7561 29.991 19.8477 30.0007 19.9396 30.0004C20.2734 30.0004 20.5936 29.8676 20.8296 29.6314L24.3369 26.1121L26.5111 28.2874L27.867 29.644C28.1044 29.8734 28.4224 30.0004 28.7525 29.9975C29.0826 29.9946 29.3983 29.8622 29.6317 29.6286C29.8651 29.3951 29.9975 29.0792 30.0004 28.7489C30.0033 28.4187 29.8764 28.1005 29.6471 27.8629V27.8667ZM20.4482 26.4459L17.0189 17.0117L26.4482 20.4428L20.4482 26.4459Z" fill="#E7A827"/>
<path d="M12.5004 25.0007C10.028 25.0007 7.61121 24.2676 5.55554 22.894C3.49987 21.5205 1.89766 19.5682 0.951539 17.2841C0.00541621 14.9999 -0.242133 12.4865 0.240197 10.0617C0.722526 7.63684 1.91307 5.40948 3.66128 3.66128C5.40948 1.91307 7.63684 0.722526 10.0617 0.240197C12.4865 -0.242133 14.9999 0.00541621 17.2841 0.951539C19.5682 1.89766 21.5205 3.49987 22.894 5.55554C24.2676 7.61121 25.0007 10.028 25.0007 12.5004C25.0007 12.8319 24.869 13.1499 24.6346 13.3843C24.4002 13.6187 24.0822 13.7504 23.7507 13.7504C23.4192 13.7504 23.1012 13.6187 22.8668 13.3843C22.6324 13.1499 22.5007 12.8319 22.5007 12.5004C22.5007 10.5225 21.9142 8.58904 20.8153 6.9445C19.7165 5.29997 18.1546 4.0182 16.3273 3.26131C14.5 2.50441 12.4893 2.30637 10.5494 2.69223C8.60954 3.07809 6.82766 4.03053 5.4291 5.4291C4.03053 6.82766 3.07809 8.60954 2.69223 10.5494C2.30637 12.4893 2.50441 14.5 3.26131 16.3273C4.0182 18.1546 5.29997 19.7165 6.9445 20.8153C8.58904 21.9142 10.5225 22.5007 12.5004 22.5007C12.8319 22.5007 13.1499 22.6324 13.3843 22.8668C13.6187 23.1012 13.7504 23.4192 13.7504 23.7507C13.7504 24.0822 13.6187 24.4002 13.3843 24.6346C13.1499 24.869 12.8319 25.0007 12.5004 25.0007Z" fill="#E7A827"/>
<path d="M10.0902 19.4954C9.9263 19.4955 9.764 19.4633 9.61256 19.4006C8.47626 18.9284 7.47387 18.1831 6.69417 17.2308C5.91447 16.2785 5.38152 15.1485 5.14252 13.9409C4.90352 12.7332 4.96584 11.4853 5.32397 10.3075C5.6821 9.12978 6.32498 8.05855 7.19567 7.18873C8.06637 6.31891 9.13802 5.67733 10.3157 5.32081C11.4934 4.9643 12.7408 4.90386 13.9474 5.14483C15.154 5.38581 16.2826 5.92077 17.2332 6.70233C18.1838 7.4839 18.9272 8.48796 19.3974 9.62558C19.4633 9.77757 19.4983 9.94117 19.5003 10.1068C19.5024 10.2725 19.4714 10.4369 19.4093 10.5905C19.3471 10.744 19.255 10.8837 19.1384 11.0013C19.0217 11.1189 18.8828 11.212 18.7298 11.2753C18.5768 11.3386 18.4127 11.3708 18.2471 11.37C18.0815 11.3691 17.9177 11.3353 17.7653 11.2705C17.6129 11.2056 17.475 11.1111 17.3595 10.9924C17.244 10.8736 17.1533 10.7331 17.0927 10.5789C16.7785 9.82115 16.2825 9.15259 15.6486 8.63236C15.0146 8.11212 14.2622 7.75626 13.4581 7.59625C12.6539 7.43624 11.8227 7.47702 11.0381 7.71499C10.2534 7.95295 9.53945 8.38076 8.9594 8.96055C8.37936 9.54035 7.95109 10.2543 7.71251 11.0391C7.47392 11.824 7.43236 12.6555 7.59152 13.4603C7.75067 14.265 8.10563 15.0181 8.62498 15.6529C9.14433 16.2877 9.81207 16.7846 10.5691 17.0997C10.8359 17.2102 11.0561 17.4098 11.1922 17.6646C11.3282 17.9194 11.3717 18.2136 11.3152 18.4969C11.2587 18.7802 11.1057 19.0351 10.8823 19.2181C10.6589 19.4011 10.3789 19.5009 10.0902 19.5004V19.4954Z" fill="#E7A827"/>
</svg>
