<svg width="18" height="19" viewBox="0 0 18 19" fill="none" xmlns="http://www.w3.org/2000/svg">
<g clip-path="url(#clip0_1912_5729)">
<path d="M9.102 14.827C8.718 14.827 8.33475 14.6988 8.0145 14.4423C6.96375 13.6007 4.97625 11.5525 4.97625 9.823C4.97625 8.404 6.06975 7.2505 7.41375 7.2505C8.08125 7.2505 8.67 7.489 9.10125 7.8895C9.5325 7.48975 10.1213 7.2505 10.7887 7.2505C12.1328 7.2505 13.2262 8.40475 13.2262 9.823C13.2262 11.5533 11.2395 13.6015 10.1888 14.443C9.8685 14.6995 9.48525 14.827 9.102 14.827ZM7.41375 8.74975C6.897 8.74975 6.47625 9.23125 6.47625 9.82225C6.47625 10.7793 7.914 12.4397 8.952 13.2708C9.0405 13.3435 9.16125 13.3435 9.25125 13.2708C10.2893 12.4397 11.7262 10.7793 11.7262 9.8215C11.7262 9.22975 11.3055 8.749 10.7887 8.749C10.3223 8.749 9.85125 9.0295 9.85125 9.65575C9.85125 10.0697 9.516 10.4058 9.10125 10.4058C8.6865 10.4058 8.35125 10.0697 8.35125 9.65575C8.35125 8.986 7.84575 8.749 7.41375 8.749V8.74975ZM14.25 18.4998H3.75C1.68225 18.4998 0 16.8175 0 14.7498V7.79275C0 6.54475 0.61725 5.383 1.65225 4.684L6.90225 1.141C8.17575 0.2815 9.8235 0.28075 11.0985 1.141L16.3485 4.68325C17.3827 5.3815 18 6.54325 18 7.792V14.749C18 16.8167 16.3177 18.4998 14.25 18.4998ZM9.00075 1.99825C8.562 1.99825 8.124 2.12725 7.7415 2.38525L2.4915 5.9275C1.8705 6.34675 1.5 7.0435 1.5 7.79275V14.7498C1.5 15.9903 2.5095 16.9998 3.75 16.9998H14.25C15.4905 16.9998 16.5 15.9903 16.5 14.7498V7.79275C16.5 7.0435 16.1295 6.346 15.5093 5.9275L10.2592 2.38525C9.87675 2.12725 9.43875 1.99825 9.00075 1.99825Z" fill="#E7A827"/>
</g>
<defs>
<clipPath id="clip0_1912_5729">
<rect width="18" height="18" fill="white" transform="translate(0 0.5)"/>
</clipPath>
</defs>
</svg>
