<svg width="30" height="30" viewBox="0 0 30 30" fill="none" xmlns="http://www.w3.org/2000/svg">
<path d="M16.2278 1.25406C16.2278 0.92199 16.3597 0.603525 16.5945 0.368718C16.8293 0.133912 17.1478 0.00199949 17.4799 0.00199949C20.7994 0.00564498 23.9819 1.32594 26.3292 3.67321C28.6765 6.02049 29.9968 9.20302 30.0004 12.5226C30.0004 12.8546 29.8685 13.1731 29.6337 13.4079C29.3989 13.6427 29.0804 13.7746 28.7484 13.7746C28.4163 13.7746 28.0978 13.6427 27.863 13.4079C27.6282 13.1731 27.4963 12.8546 27.4963 12.5226C27.4933 9.86695 26.4371 7.32096 24.5593 5.44316C22.6815 3.56535 20.1355 2.5091 17.4799 2.50611C17.1478 2.50611 16.8293 2.3742 16.5945 2.13939C16.3597 1.90459 16.2278 1.58612 16.2278 1.25406ZM17.4799 7.51434C18.8081 7.51434 20.082 8.04199 21.0212 8.98122C21.9604 9.92044 22.4881 11.1943 22.4881 12.5226C22.4881 12.8546 22.62 13.1731 22.8548 13.4079C23.0896 13.6427 23.4081 13.7746 23.7402 13.7746C24.0722 13.7746 24.3907 13.6427 24.6255 13.4079C24.8603 13.1731 24.9922 12.8546 24.9922 12.5226C24.9902 10.5308 24.1981 8.62114 22.7897 7.21274C21.3813 5.80433 19.4717 5.01222 17.4799 5.01023C17.1478 5.01023 16.8293 5.14214 16.5945 5.37695C16.3597 5.61175 16.2278 5.93022 16.2278 6.26228C16.2278 6.59435 16.3597 6.91281 16.5945 7.14762C16.8293 7.38243 17.1478 7.51434 17.4799 7.51434ZM28.8648 20.9602C29.5904 21.6878 29.9979 22.6734 29.9979 23.7009C29.9979 24.7285 29.5904 25.7141 28.8648 26.4417L27.7254 27.7551C17.4711 37.5725 -7.48239 12.6252 2.18349 2.33834L3.62336 1.08628C4.35176 0.380969 5.32857 -0.00920757 6.34245 0.000165033C7.35633 0.00953763 8.32576 0.417705 9.04101 1.13636C9.07982 1.17518 11.3999 4.18888 11.3999 4.18888C12.0883 4.9121 12.4715 5.8728 12.4699 6.87129C12.4683 7.86977 12.0819 8.82922 11.3911 9.55018L9.94123 11.3732C10.7436 13.3228 11.9233 15.0946 13.4126 16.5869C14.9018 18.0791 16.6713 19.2624 18.6192 20.0687L20.4535 18.6101C21.1746 17.9198 22.1338 17.5339 23.132 17.5325C24.1302 17.5311 25.0906 17.9143 25.8136 18.6026C25.8136 18.6026 28.826 20.9214 28.8648 20.9602ZM27.142 22.7807C27.142 22.7807 24.1458 20.4756 24.107 20.4368C23.8491 20.1811 23.5005 20.0376 23.1373 20.0376C22.774 20.0376 22.4255 20.1811 22.1676 20.4368C22.1338 20.4719 19.6084 22.4839 19.6084 22.4839C19.4382 22.6194 19.2356 22.7082 19.0207 22.7416C18.8058 22.7749 18.5858 22.7517 18.3826 22.6742C15.859 21.7347 13.5669 20.2637 11.6614 18.361C9.75585 16.4583 8.28151 14.1683 7.33821 11.6461C7.25457 11.4401 7.2273 11.2155 7.25921 10.9955C7.29112 10.7754 7.38105 10.5679 7.51976 10.3941C7.51976 10.3941 9.53181 7.86742 9.56562 7.83487C9.82137 7.57692 9.96487 7.22839 9.96487 6.86515C9.96487 6.50191 9.82137 6.15337 9.56562 5.89543C9.5268 5.85787 7.22177 2.85919 7.22177 2.85919C6.95996 2.62444 6.61828 2.49872 6.26676 2.5078C5.91524 2.51688 5.5805 2.66007 5.33116 2.90802L3.8913 4.16008C-3.17281 12.654 18.4515 33.0788 25.8949 26.0448L27.0356 24.7301C27.3029 24.4825 27.4634 24.1407 27.4833 23.7769C27.5031 23.4131 27.3807 23.0559 27.142 22.7807Z" fill="#121212"/>
</svg>
