<svg width="21" height="20" viewBox="0 0 21 20" fill="none" xmlns="http://www.w3.org/2000/svg">
<path fill-rule="evenodd" clip-rule="evenodd" d="M17.5869 2.90667C15.7062 1.03333 13.2059 0.000833333 10.5423 0C5.05349 0 0.586247 4.445 0.583735 9.91C0.582897 11.6567 1.04176 13.3617 1.91344 14.865L0.5 20L5.77863 18.6217C7.2331 19.4117 8.87094 19.8275 10.5373 19.8283H10.5414C16.0294 19.8283 20.4975 15.3825 20.5 9.9175C20.5017 7.27 19.4667 4.77917 17.5869 2.90667ZM10.5423 18.1542H10.5389C9.05348 18.1542 7.59734 17.7567 6.32625 17.0058L6.02397 16.8275L2.89146 17.645L3.72797 14.605L3.53119 14.2933C2.70222 12.9817 2.26512 11.4658 2.26596 9.91C2.26764 5.36833 5.98126 1.67333 10.5465 1.67333C12.7571 1.67333 14.8354 2.53167 16.3978 4.08833C17.9603 5.64583 18.8203 7.715 18.8194 9.91583C18.8169 14.4592 15.1041 18.1542 10.5423 18.1542ZM15.0824 11.985C14.8337 11.8608 13.6103 11.2617 13.3817 11.1792C13.154 11.0967 12.9882 11.055 12.8215 11.3025C12.6549 11.55 12.1793 12.1083 12.0336 12.2742C11.8887 12.4392 11.743 12.46 11.4943 12.3358C11.2457 12.2117 10.4435 11.9508 9.49309 11.1067C8.75371 10.45 8.25382 9.63917 8.10896 9.39083C7.9641 9.1425 8.09389 9.00917 8.21781 8.88583C8.33002 8.775 8.46651 8.59667 8.59127 8.45167C8.71687 8.30833 8.7579 8.205 8.84164 8.03917C8.92453 7.87417 8.8835 7.72917 8.8207 7.605C8.7579 7.48167 8.26052 6.2625 8.05369 5.76667C7.85189 5.28333 7.64674 5.34917 7.49351 5.34167C7.34865 5.33417 7.18285 5.33333 7.01622 5.33333C6.85043 5.33333 6.5808 5.395 6.35304 5.64333C6.12529 5.89167 5.48221 6.49083 5.48221 7.70917C5.48221 8.92833 6.37398 10.1058 6.49791 10.2708C6.62183 10.4358 8.25214 12.9375 10.7483 14.01C11.3419 14.265 11.8058 14.4175 12.1667 14.5317C12.7629 14.72 13.3055 14.6933 13.7342 14.63C14.2124 14.5592 15.2063 14.0308 15.414 13.4525C15.6216 12.8742 15.6216 12.3775 15.5588 12.275C15.4969 12.1708 15.3311 12.1092 15.0824 11.985Z" fill="white"/>
</svg>
