<svg width="24" height="24" viewBox="0 0 24 24" fill="none" xmlns="http://www.w3.org/2000/svg">
<path d="M23.3098 22.007L17.5381 16.2353C19.111 14.3117 19.8843 11.8571 19.6981 9.37924C19.512 6.90141 18.3806 4.58992 16.5379 2.92289C14.6953 1.25587 12.2824 0.360842 9.79834 0.422951C7.3143 0.48506 4.94916 1.49955 3.19213 3.25658C1.4351 5.01361 0.420607 7.37875 0.358498 9.86279C0.296389 12.3468 1.19141 14.7597 2.85844 16.6024C4.52547 18.445 6.83696 19.5764 9.31479 19.7626C11.7926 19.9488 14.2472 19.1754 16.1709 17.6026L21.9426 23.3743C22.1249 23.5504 22.3692 23.6479 22.6227 23.6457C22.8763 23.6435 23.1188 23.5418 23.2981 23.3625C23.4773 23.1832 23.579 22.9407 23.5812 22.6872C23.5834 22.4337 23.486 22.1894 23.3098 22.007ZM10.0559 17.8559C8.52594 17.8559 7.03034 17.4022 5.75824 16.5522C4.48613 15.7022 3.49464 14.4941 2.90915 13.0806C2.32366 11.6671 2.17047 10.1118 2.46895 8.61121C2.76743 7.11065 3.50417 5.73231 4.58601 4.65047C5.66785 3.56863 7.0462 2.83188 8.54676 2.5334C10.0473 2.23492 11.6027 2.38812 13.0162 2.9736C14.4297 3.55909 15.6378 4.55058 16.4878 5.82269C17.3378 7.0948 17.7915 8.59039 17.7915 10.1203C17.7892 12.1712 16.9734 14.1375 15.5232 15.5877C14.073 17.0379 12.1068 17.8536 10.0559 17.8559Z" fill="black"/>
<path d="M12.9561 9.15279H11.0222V7.2189C11.0222 6.96245 10.9204 6.7165 10.739 6.53517C10.5577 6.35383 10.3117 6.25195 10.0553 6.25195C9.79884 6.25195 9.55289 6.35383 9.37155 6.53517C9.19022 6.7165 9.08834 6.96245 9.08834 7.2189V9.15279H7.15445C6.898 9.15279 6.65205 9.25467 6.47071 9.43601C6.28937 9.61735 6.1875 9.86329 6.1875 10.1197C6.1875 10.3762 6.28937 10.6221 6.47071 10.8035C6.65205 10.9848 6.898 11.0867 7.15445 11.0867H9.08834V13.0206C9.08834 13.277 9.19022 13.523 9.37155 13.7043C9.55289 13.8857 9.79884 13.9875 10.0553 13.9875C10.3117 13.9875 10.5577 13.8857 10.739 13.7043C10.9204 13.523 11.0222 13.277 11.0222 13.0206V11.0867H12.9561C13.2126 11.0867 13.4585 10.9848 13.6399 10.8035C13.8212 10.6221 13.9231 10.3762 13.9231 10.1197C13.9231 9.86329 13.8212 9.61735 13.6399 9.43601C13.4585 9.25467 13.2126 9.15279 12.9561 9.15279Z" fill="black"/>
</svg>
