<svg width="36" height="36" viewBox="0 0 36 36" fill="none" xmlns="http://www.w3.org/2000/svg">
<path fill-rule="evenodd" clip-rule="evenodd" d="M18 36C27.9411 36 36 27.9411 36 18C36 8.05887 27.9411 0 18 0C8.05887 0 0 8.05887 0 18C0 27.9411 8.05887 36 18 36ZM25.032 12.0375C25.8067 12.246 26.4165 12.8602 26.6235 13.6395C27 15.0525 27 18 27 18C27 18 27 20.9475 26.6243 22.3605C26.4165 23.1405 25.8068 23.754 25.0328 23.9625C23.6287 24.3405 18 24.3405 18 24.3405C18 24.3405 12.3713 24.3405 10.968 23.9625C10.1932 23.754 9.5835 23.1397 9.3765 22.3605C9 20.9475 9 18 9 18C9 18 9 15.0525 9.3765 13.6395C9.5835 12.8595 10.1932 12.246 10.9672 12.0375C12.3712 11.6595 18 11.6595 18 11.6595C18 11.6595 23.6287 11.6595 25.032 12.0375ZM20.8635 18L16.1595 15.3232V20.6768L20.8635 18Z" fill="#E7A827"/>
</svg>
