<svg width="21" height="15" viewBox="0 0 21 15" fill="none" xmlns="http://www.w3.org/2000/svg">
<path d="M20.2846 7.43507C20.2777 8.07437 19.9792 8.68559 19.4538 9.13629L13.4128 14.3615C13.1489 14.5878 12.792 14.7148 12.42 14.7148C12.048 14.7148 11.6911 14.5878 11.4273 14.3615C11.2953 14.2485 11.1905 14.1141 11.119 13.966C11.0475 13.818 11.0107 13.6591 11.0107 13.4987C11.0107 13.3383 11.0475 13.1795 11.119 13.0314C11.1905 12.8833 11.2953 12.7489 11.4273 12.636L16.0601 8.65023L1.97848 8.65023C1.60501 8.65023 1.24684 8.5222 0.982754 8.29432C0.718672 8.06643 0.570312 7.75735 0.570312 7.43507C0.570312 7.11279 0.718672 6.80371 0.982754 6.57582C1.24684 6.34793 1.60501 6.21991 1.97848 6.21991L16.0601 6.21991L11.4273 2.22202C11.1621 1.99482 11.0124 1.68602 11.0111 1.36356C11.0097 1.0411 11.1569 0.731392 11.4202 0.502573C11.6835 0.273754 12.0414 0.144563 12.415 0.143424C12.7887 0.142285 13.1476 0.26929 13.4128 0.496499L19.4538 5.72169C19.9827 6.17537 20.2815 6.79155 20.2846 7.43507Z" fill="white"/>
</svg>
