<svg width="36" height="36" viewBox="0 0 36 36" fill="none" xmlns="http://www.w3.org/2000/svg">
<path fill-rule="evenodd" clip-rule="evenodd" d="M18 36C27.9411 36 36 27.9411 36 18C36 8.05887 27.9411 0 18 0C8.05887 0 0 8.05887 0 18C0 27.9411 8.05887 36 18 36ZM21.6368 10.674C20.688 10.6305 20.403 10.6215 18 10.6215C15.597 10.6215 15.312 10.6305 14.3632 10.674C13.3815 10.719 12.3772 10.9373 11.6572 11.6572C10.9493 12.3652 10.7183 13.3913 10.674 14.3632C10.6305 15.312 10.6215 15.597 10.6215 18C10.6215 20.403 10.6305 20.688 10.674 21.6368C10.719 22.6147 10.9395 23.625 11.6572 24.3428C12.3615 25.0478 13.395 25.2817 14.3632 25.326C15.312 25.3695 15.597 25.3785 18 25.3785C20.403 25.3785 20.688 25.3695 21.6368 25.326C22.6215 25.281 23.6213 25.0643 24.3428 24.3428C25.053 23.6325 25.2817 22.6125 25.326 21.6368C25.3695 20.688 25.3785 20.403 25.3785 18C25.3785 15.597 25.3695 15.312 25.326 14.3632C25.281 13.3792 25.0643 12.3787 24.3428 11.6572C23.628 10.9425 22.6178 10.719 21.6368 10.674ZM14.289 9.054C15.249 9.0105 15.5557 9 18 9C20.4443 9 20.751 9.0105 21.711 9.054C23.0977 9.117 24.4823 9.50325 25.4895 10.5105C26.4945 11.5155 26.8822 12.8977 26.946 14.289C26.9895 15.249 27 15.5557 27 18C27 20.4443 26.9895 20.751 26.946 21.711C26.8822 23.1015 26.4998 24.4792 25.4895 25.4895C24.4845 26.4945 23.1015 26.8822 21.711 26.946C20.751 26.9895 20.4443 27 18 27C15.5557 27 15.249 26.9895 14.289 26.946C12.9 26.8822 11.5192 26.4983 10.5105 25.4895C9.50625 24.486 9.11775 23.1007 9.054 21.711C9.0105 20.751 9 20.4443 9 18C9 15.5557 9.0105 15.249 9.054 14.289C9.11775 12.8985 9.501 11.52 10.5105 10.5105C11.5162 9.50475 12.8977 9.11775 14.289 9.054ZM18 13.3785C15.4478 13.3785 13.3785 15.4478 13.3785 18C13.3785 20.5522 15.4478 22.6215 18 22.6215C20.5522 22.6215 22.6215 20.5522 22.6215 18C22.6215 15.4478 20.5522 13.3785 18 13.3785ZM18 21C16.3433 21 15 19.6567 15 18C15 16.3433 16.3433 15 18 15C19.6567 15 21 16.3433 21 18C21 19.6567 19.6567 21 18 21ZM23.8845 13.1955C23.8845 13.792 23.401 14.2755 22.8045 14.2755C22.208 14.2755 21.7245 13.792 21.7245 13.1955C21.7245 12.599 22.208 12.1155 22.8045 12.1155C23.401 12.1155 23.8845 12.599 23.8845 13.1955Z" fill="#E7A827"/>
</svg>
