<svg width="34" height="34" viewBox="0 0 34 34" fill="none" xmlns="http://www.w3.org/2000/svg">
<path d="M23.3367 14.598L16.1047 10.638C15.1673 10.1101 14.053 10.1198 13.1267 10.6617C12.1976 11.2049 11.6446 12.1702 11.6446 13.2455V21.1837C11.6446 22.259 12.1976 23.2243 13.1267 23.7675C13.6003 24.0447 14.1212 24.1812 14.6408 24.1812C15.1395 24.1812 15.6381 24.0545 16.0908 23.7996L23.3506 19.8242C24.3076 19.2866 24.8773 18.3115 24.8773 17.2153C24.8773 16.1191 24.3076 15.144 23.3381 14.5994L23.3367 14.598ZM21.9981 17.388L14.7383 21.3648C14.7118 21.3787 14.631 21.4233 14.5335 21.3634C14.4305 21.3035 14.4305 21.2143 14.4305 21.1851V13.2469C14.4305 13.2177 14.4305 13.1285 14.5335 13.0686C14.5711 13.0463 14.606 13.0394 14.6366 13.0394C14.6868 13.0394 14.7271 13.0617 14.7522 13.0756L21.9842 17.037C22.0107 17.0523 22.0901 17.0969 22.0901 17.2181C22.0901 17.3393 22.0093 17.3838 21.9981 17.3922V17.388ZM17.2149 0.499023C7.99802 0.499023 0.5 7.99704 0.5 17.2139C0.5 26.4308 7.99802 33.9288 17.2149 33.9288C26.4317 33.9288 33.9298 26.4308 33.9298 17.2139C33.9298 7.99704 26.4317 0.499023 17.2149 0.499023ZM17.2149 31.143C9.53439 31.143 3.28581 24.8944 3.28581 17.2139C3.28581 9.53342 9.53439 3.28484 17.2149 3.28484C24.8954 3.28484 31.1439 9.53342 31.1439 17.2139C31.1439 24.8944 24.8954 31.143 17.2149 31.143Z" fill="black"/>
</svg>
