<svg width="18" height="19" viewBox="0 0 18 19" fill="none" xmlns="http://www.w3.org/2000/svg">
<g clip-path="url(#clip0_1912_5733)">
<path d="M14.625 0.5H11.25C10.4227 0.5 9.75 1.17275 9.75 2V5C9.75 5.82725 10.4227 6.5 11.25 6.5H16.5C17.3272 6.5 18 5.82725 18 5V3.875C18 2.01425 16.4858 0.5 14.625 0.5ZM11.25 5V2H14.625C15.6593 2 16.5 2.8415 16.5 3.875V5H11.25ZM16.5 8H6V5C6 4.17275 5.32725 3.5 4.5 3.5H3.375C1.51425 3.5 0 5.01425 0 6.875V15.125C0 16.9858 1.51425 18.5 3.375 18.5H14.625C16.4858 18.5 18 16.9858 18 15.125V9.5C18 8.67275 17.3272 8 16.5 8ZM16.5 12.5H9.75V9.5H16.5V12.5ZM12 14V17H6V14H12ZM1.5 6.875C1.5 5.8415 2.34075 5 3.375 5H4.5V8H1.5V6.875ZM8.25 9.5V12.5H1.5V9.5H8.25ZM1.5 15.125V14H4.5V17H3.375C2.34075 17 1.5 16.1585 1.5 15.125ZM14.625 17H13.5V14H16.5V15.125C16.5 16.1585 15.6593 17 14.625 17Z" fill="#E7A827"/>
</g>
<defs>
<clipPath id="clip0_1912_5733">
<rect width="18" height="18" fill="white" transform="translate(0 0.5)"/>
</clipPath>
</defs>
</svg>
