<svg width="20" height="20" viewBox="0 0 20 20" fill="none" xmlns="http://www.w3.org/2000/svg">
<path d="M7.74003 10.8895C5.8092 11.2611 4.85254 13.4111 4.43754 14.7511C4.3984 14.876 4.38924 15.0084 4.41079 15.1375C4.43234 15.2666 4.484 15.3888 4.56158 15.4942C4.63917 15.5997 4.74049 15.6853 4.85735 15.7443C4.97421 15.8033 5.10331 15.8339 5.2342 15.8336H8.33337C8.68096 15.8337 9.02475 15.7613 9.34277 15.621C9.6608 15.4807 9.94608 15.2757 10.1804 15.0189C10.4147 14.7622 10.5929 14.4594 10.7036 14.1299C10.8143 13.8004 10.8551 13.4514 10.8234 13.1053C10.7791 12.7516 10.6622 12.4109 10.4802 12.1045C10.2981 11.7981 10.0547 11.5325 9.76526 11.3245C9.47581 11.1165 9.14654 10.9705 8.79805 10.8956C8.44956 10.8208 8.08937 10.8187 7.74003 10.8895Z" fill="#121212"/>
<path d="M19.1667 7.48249C18.9456 7.48249 18.7337 7.57029 18.5774 7.72657C18.4211 7.88285 18.3333 8.09481 18.3333 8.31583V12.5H15C14.3369 12.5 13.7011 12.7634 13.2322 13.2322C12.7634 13.7011 12.5 14.3369 12.5 15V18.3333H4.16666C3.50362 18.3333 2.86774 18.0699 2.3989 17.6011C1.93006 17.1322 1.66667 16.4964 1.66667 15.8333V4.16666C1.66667 3.50362 1.93006 2.86774 2.3989 2.3989C2.86774 1.93006 3.50362 1.66667 4.16666 1.66667H13.3683C13.5893 1.66667 13.8013 1.57887 13.9576 1.42259C14.1139 1.26631 14.2017 1.05435 14.2017 0.833333C14.2017 0.612319 14.1139 0.400358 13.9576 0.244077C13.8013 0.0877973 13.5893 0 13.3683 0L4.16666 0C3.062 0.00132321 2.00296 0.440735 1.22185 1.22185C0.440735 2.00296 0.00132321 3.062 0 4.16666L0 15.8333C0.00132321 16.938 0.440735 17.997 1.22185 18.7781C2.00296 19.5592 3.062 19.9987 4.16666 20H13.6192C14.1665 20.0015 14.7086 19.8945 15.2143 19.6851C15.7199 19.4757 16.179 19.168 16.565 18.78L18.78 16.565C19.168 16.179 19.4757 15.7199 19.6851 15.2143C19.8945 14.7086 20.0015 14.1665 20 13.6192V8.31583C20 8.09481 19.9122 7.88285 19.7559 7.72657C19.5996 7.57029 19.3877 7.48249 19.1667 7.48249ZM15.3867 17.6017C15.0506 17.9339 14.6278 18.165 14.1667 18.2683V15C14.1667 14.779 14.2545 14.567 14.4107 14.4107C14.567 14.2545 14.779 14.1667 15 14.1667H18.2708C18.1675 14.6278 17.9364 15.0506 17.6042 15.3867L15.3867 17.6017Z" fill="#121212"/>
<path d="M12.1384 11.8076C11.9736 11.8076 11.8126 11.7587 11.6755 11.6671C11.5385 11.5755 11.4318 11.4454 11.3687 11.2931C11.3056 11.1409 11.2891 10.9734 11.3213 10.8117C11.3534 10.6501 11.4328 10.5016 11.5493 10.3851L18.0934 3.84093C18.1666 3.76794 18.2246 3.68124 18.2642 3.58579C18.3038 3.49034 18.3242 3.38802 18.3242 3.28468C18.3242 3.18135 18.3038 3.07903 18.2642 2.98358C18.2246 2.88813 18.1666 2.80143 18.0934 2.72843C18.019 2.65108 17.9289 2.5906 17.8291 2.55106C17.7294 2.51153 17.6223 2.49386 17.5151 2.49927C17.408 2.5016 17.3025 2.52604 17.2053 2.57107C17.108 2.6161 17.0212 2.68074 16.9501 2.76093L10.6168 9.76676C10.4686 9.93075 10.2613 10.0292 10.0406 10.0403C9.81982 10.0515 9.60367 9.97453 9.43968 9.82634C9.27569 9.67815 9.17728 9.47089 9.16611 9.25014C9.15493 9.0294 9.23191 8.81325 9.3801 8.64926L15.7134 1.64927C15.9355 1.40132 16.2057 1.20108 16.5075 1.0607C16.8093 0.920317 17.1365 0.842715 17.4693 0.832602C17.8025 0.825461 18.1338 0.885369 18.4434 1.00877C18.7531 1.13217 19.0348 1.31654 19.2718 1.55094C19.7311 2.01133 19.9891 2.63515 19.9891 3.28552C19.9891 3.93589 19.7311 4.5597 19.2718 5.0201L12.7276 11.5643C12.6504 11.6418 12.5585 11.7032 12.4574 11.7449C12.3563 11.7867 12.2478 11.808 12.1384 11.8076Z" fill="#121212"/>
</svg>
