<svg width="21" height="15" viewBox="0 0 21 15" fill="none" xmlns="http://www.w3.org/2000/svg">
<path d="M0.715403 7.43507C0.722256 8.07437 1.02076 8.68559 1.54622 9.13629L7.58724 14.3615C7.85108 14.5878 8.20798 14.7148 8.57999 14.7148C8.95201 14.7148 9.30891 14.5878 9.57275 14.3615C9.70473 14.2485 9.80949 14.1141 9.88098 13.966C9.95247 13.818 9.98928 13.6591 9.98928 13.4987C9.98928 13.3383 9.95247 13.1795 9.88098 13.0314C9.80949 12.8833 9.70473 12.7489 9.57275 12.636L4.93989 8.65023L19.0215 8.65023C19.395 8.65023 19.7532 8.5222 20.0172 8.29432C20.2813 8.06643 20.4297 7.75735 20.4297 7.43507C20.4297 7.11279 20.2813 6.80371 20.0172 6.57582C19.7532 6.34793 19.395 6.21991 19.0215 6.21991L4.93989 6.21991L9.57275 2.22202C9.83791 1.99482 9.98762 1.68602 9.98894 1.36356C9.99026 1.0411 9.84309 0.731392 9.57979 0.502573C9.3165 0.273754 8.95865 0.144563 8.58497 0.143424C8.2113 0.142285 7.8524 0.26929 7.58724 0.496499L1.54622 5.72169C1.01733 6.17537 0.718548 6.79155 0.715403 7.43507Z" fill="white"/>
</svg>
