<svg width="16" height="16" viewBox="0 0 16 16" fill="none" xmlns="http://www.w3.org/2000/svg">
<path d="M15.2194 6.11494L12.6334 3.52894C12.5076 3.4075 12.3392 3.3403 12.1644 3.34182C11.9897 3.34334 11.8224 3.41345 11.6988 3.53706C11.5752 3.66066 11.5051 3.82787 11.5036 4.00267C11.5021 4.17747 11.5693 4.34587 11.6907 4.4716L14.2767 7.05761C14.3535 7.13596 14.4207 7.22325 14.4767 7.3176C14.4667 7.3176 14.4587 7.31227 14.4487 7.31227L3.99272 7.3336C3.81591 7.3336 3.64634 7.40384 3.52131 7.52887C3.39629 7.65389 3.32605 7.82346 3.32605 8.00027C3.32605 8.17708 3.39629 8.34665 3.52131 8.47168C3.64634 8.5967 3.81591 8.66694 3.99272 8.66694L14.4447 8.64561C14.4634 8.64561 14.4787 8.63627 14.4967 8.63494C14.4376 8.74771 14.3626 8.85143 14.2741 8.94294L11.6881 11.5289C11.6244 11.5904 11.5736 11.664 11.5387 11.7453C11.5037 11.8267 11.4853 11.9142 11.4846 12.0027C11.4838 12.0912 11.5006 12.179 11.5342 12.2609C11.5677 12.3428 11.6172 12.4173 11.6798 12.4799C11.7424 12.5425 11.8168 12.592 11.8987 12.6255C11.9807 12.659 12.0685 12.6759 12.157 12.6751C12.2455 12.6743 12.333 12.6559 12.4143 12.621C12.4957 12.5861 12.5692 12.5353 12.6307 12.4716L15.2167 9.8856C15.7166 9.38553 15.9975 8.70738 15.9975 8.00027C15.9975 7.29317 15.7166 6.61501 15.2167 6.11494H15.2194Z" fill="black"/>
<path d="M4.66667 14.6667H3.33333C2.8029 14.6667 2.29419 14.456 1.91912 14.0809C1.54405 13.7058 1.33333 13.1971 1.33333 12.6667V3.33333C1.33333 2.8029 1.54405 2.29419 1.91912 1.91912C2.29419 1.54405 2.8029 1.33333 3.33333 1.33333H4.66667C4.84348 1.33333 5.01305 1.2631 5.13807 1.13807C5.2631 1.01305 5.33333 0.843478 5.33333 0.666667C5.33333 0.489856 5.2631 0.320286 5.13807 0.195262C5.01305 0.0702379 4.84348 0 4.66667 0L3.33333 0C2.4496 0.00105857 1.60237 0.352588 0.97748 0.97748C0.352588 1.60237 0.00105857 2.4496 0 3.33333L0 12.6667C0.00105857 13.5504 0.352588 14.3976 0.97748 15.0225C1.60237 15.6474 2.4496 15.9989 3.33333 16H4.66667C4.84348 16 5.01305 15.9298 5.13807 15.8047C5.2631 15.6797 5.33333 15.5101 5.33333 15.3333C5.33333 15.1565 5.2631 14.987 5.13807 14.8619C5.01305 14.7369 4.84348 14.6667 4.66667 14.6667Z" fill="black"/>
</svg>
