<svg width="20" height="20" viewBox="0 0 20 20" fill="none" xmlns="http://www.w3.org/2000/svg">
<path d="M1.66666 9.16664H10.8333C11.2753 9.16664 11.6992 8.99104 12.0118 8.67848C12.3244 8.36592 12.5 7.942 12.5 7.49997V1.66666C12.5 1.22464 12.3244 0.800713 12.0118 0.488154C11.6992 0.175594 11.2753 0 10.8333 0L1.66666 0C1.22464 0 0.800713 0.175594 0.488154 0.488154C0.175594 0.800713 0 1.22464 0 1.66666L0 7.49997C0 7.942 0.175594 8.36592 0.488154 8.67848C0.800713 8.99104 1.22464 9.16664 1.66666 9.16664ZM1.66666 1.66666H10.8333V7.49997H1.66666V1.66666Z" fill="white"/>
<path d="M18.3332 0H15.8332C15.3911 0 14.9672 0.175594 14.6547 0.488154C14.3421 0.800713 14.1665 1.22464 14.1665 1.66666V7.49997C14.1665 7.942 14.3421 8.36592 14.6547 8.67848C14.9672 8.99104 15.3911 9.16664 15.8332 9.16664H18.3332C18.7752 9.16664 19.1991 8.99104 19.5117 8.67848C19.8242 8.36592 19.9998 7.942 19.9998 7.49997V1.66666C19.9998 1.22464 19.8242 0.800713 19.5117 0.488154C19.1991 0.175594 18.7752 0 18.3332 0ZM18.3332 7.49997H15.8332V1.66666H18.3332V7.49997Z" fill="white"/>
<path d="M4.16665 10.834H1.66666C1.22464 10.834 0.800713 11.0096 0.488154 11.3221C0.175594 11.6347 0 12.0586 0 12.5006L0 18.334C0 18.776 0.175594 19.1999 0.488154 19.5125C0.800713 19.825 1.22464 20.0006 1.66666 20.0006H4.16665C4.60868 20.0006 5.0326 19.825 5.34516 19.5125C5.65772 19.1999 5.83331 18.776 5.83331 18.334V12.5006C5.83331 12.0586 5.65772 11.6347 5.34516 11.3221C5.0326 11.0096 4.60868 10.834 4.16665 10.834ZM4.16665 18.334H1.66666V12.5006H4.16665V18.334Z" fill="white"/>
<path d="M18.3333 10.834H9.16666C8.72464 10.834 8.30071 11.0096 7.98815 11.3221C7.67559 11.6347 7.5 12.0586 7.5 12.5006V18.334C7.5 18.776 7.67559 19.1999 7.98815 19.5125C8.30071 19.825 8.72464 20.0006 9.16666 20.0006H18.3333C18.7753 20.0006 19.1992 19.825 19.5118 19.5125C19.8244 19.1999 20 18.776 20 18.334V12.5006C20 12.0586 19.8244 11.6347 19.5118 11.3221C19.1992 11.0096 18.7753 10.834 18.3333 10.834ZM18.3333 18.334H9.16666V12.5006H18.3333V18.334Z" fill="white"/>
</svg>
