<svg width="48" height="35" viewBox="0 0 48 35" fill="none" xmlns="http://www.w3.org/2000/svg">
<path d="M23.998 25.1333C19.586 25.1333 15.998 21.6649 15.998 17.4C15.998 13.1351 19.586 9.66667 23.998 9.66667C28.41 9.66667 31.998 13.1351 31.998 17.4C31.998 21.6649 28.41 25.1333 23.998 25.1333ZM23.998 13.5333C21.792 13.5333 19.998 15.2675 19.998 17.4C19.998 19.5325 21.792 21.2667 23.998 21.2667C26.204 21.2667 27.998 19.5325 27.998 17.4C27.998 15.2675 26.204 13.5333 23.998 13.5333ZM9.998 7.73333C8.894 7.73333 7.998 8.59947 7.998 9.66667C7.998 10.7339 8.894 11.6 9.998 11.6C11.102 11.6 11.998 10.7339 11.998 9.66667C11.998 8.59947 11.102 7.73333 9.998 7.73333ZM35.998 13.5333C35.998 14.6005 36.894 15.4667 37.998 15.4667C39.102 15.4667 39.998 14.6005 39.998 13.5333C39.998 12.4661 39.102 11.6 37.998 11.6C36.894 11.6 35.998 12.4661 35.998 13.5333ZM9.998 19.3333C8.894 19.3333 7.998 20.1995 7.998 21.2667C7.998 22.3339 8.894 23.2 9.998 23.2C11.102 23.2 11.998 22.3339 11.998 21.2667C11.998 20.1995 11.102 19.3333 9.998 19.3333ZM35.998 25.1333C35.998 26.2005 36.894 27.0667 37.998 27.0667C39.102 27.0667 39.998 26.2005 39.998 25.1333C39.998 24.0661 39.102 23.2 37.998 23.2C36.894 23.2 35.998 24.0661 35.998 25.1333ZM33.996 34.8C30.728 34.8 27.8 34.0286 24.97 33.2823C22.274 32.5709 19.73 31.9 16.998 31.9C13.856 31.9 11.874 32.0953 10.16 32.5747C7.748 33.2456 5.212 32.7932 3.2 31.3297C1.166 29.8507 0 27.5925 0 25.1333V10.5405C0 6.55207 2.598 2.91547 6.466 1.4906C9.148 0.500733 11.684 0 14.002 0C17.27 0 20.196 0.7714 23.028 1.51767C25.724 2.22913 28.268 2.9 31 2.9C34.14 2.9 36.124 2.70473 37.838 2.22527C40.254 1.5544 42.79 2.0068 44.8 3.47033C46.834 4.94933 48 7.20747 48 9.66667V24.2595C48 28.2479 45.4 31.8845 41.532 33.3094C38.85 34.2993 36.316 34.8 33.996 34.8ZM16.998 28.0333C20.266 28.0333 23.192 28.8047 26.024 29.551C28.72 30.2625 31.264 30.9333 33.996 30.9333C35.824 30.9333 37.88 30.5177 40.108 29.696C42.474 28.826 44 26.6916 44 24.2595V9.66667C44 8.43513 43.414 7.3022 42.394 6.56173C41.396 5.83673 40.142 5.6086 38.944 5.94113C36.842 6.52693 34.54 6.76667 30.996 6.76667C27.728 6.76667 24.802 5.99527 21.97 5.249C19.274 4.53753 16.73 3.86667 13.998 3.86667C12.168 3.86667 10.114 4.28233 7.886 5.104C5.52 5.974 3.994 8.1084 3.994 10.5405V25.1333C3.994 26.3649 4.58 27.4978 5.6 28.2383C6.598 28.9633 7.852 29.1914 9.048 28.8569C11.15 28.2711 13.454 28.0314 16.996 28.0314L16.998 28.0333Z" fill="#E7A827"/>
</svg>
