<svg width="28" height="28" viewBox="0 0 28 28" fill="none" xmlns="http://www.w3.org/2000/svg">
<path d="M27.3621 25.5072L20.6285 18.7736C22.4635 16.5293 23.3657 13.6656 23.1485 10.7748C22.9313 7.884 21.6113 5.18726 19.4615 3.2424C17.3118 1.29753 14.4968 0.253339 11.5987 0.3258C8.70067 0.39826 5.94133 1.58183 3.89147 3.6317C1.8416 5.68157 0.658025 8.4409 0.585565 11.3389C0.513105 14.237 1.5573 17.052 3.50216 19.2018C5.44703 21.3515 8.14377 22.6715 11.0346 22.8887C13.9254 23.1059 16.7891 22.2037 19.0333 20.3687L25.767 27.1024C25.9798 27.3079 26.2647 27.4216 26.5605 27.419C26.8563 27.4164 27.1392 27.2978 27.3484 27.0886C27.5576 26.8795 27.6762 26.5965 27.6788 26.3007C27.6813 26.005 27.5676 25.72 27.3621 25.5072ZM11.8992 20.6643C10.1142 20.6643 8.36939 20.135 6.88526 19.1433C5.40113 18.1516 4.24439 16.7422 3.56133 15.0931C2.87826 13.444 2.69953 11.6294 3.04776 9.87877C3.39599 8.12812 4.25552 6.52005 5.51767 5.2579C6.77981 3.99575 8.38789 3.13622 10.1385 2.78799C11.8892 2.43977 13.7038 2.61849 15.3528 3.30156C17.0019 3.98463 18.4114 5.14137 19.4031 6.62549C20.3947 8.10962 20.924 9.85448 20.924 11.6394C20.9213 14.0321 19.9697 16.3261 18.2778 18.018C16.5858 19.7099 14.2919 20.6616 11.8992 20.6643Z" fill="white"/>
<path d="M15.2835 10.5093H13.0272V8.25311C13.0272 7.95391 12.9084 7.66698 12.6968 7.45541C12.4853 7.24385 12.1983 7.125 11.8991 7.125C11.5999 7.125 11.313 7.24385 11.1014 7.45541C10.8899 7.66698 10.771 7.95391 10.771 8.25311V10.5093H8.51482C8.21563 10.5093 7.92869 10.6282 7.71713 10.8397C7.50557 11.0513 7.38672 11.3382 7.38672 11.6374C7.38672 11.9366 7.50557 12.2236 7.71713 12.4351C7.92869 12.6467 8.21563 12.7655 8.51482 12.7655H10.771V15.0217C10.771 15.3209 10.8899 15.6079 11.1014 15.8194C11.313 16.031 11.5999 16.1498 11.8991 16.1498C12.1983 16.1498 12.4853 16.031 12.6968 15.8194C12.9084 15.6079 13.0272 15.3209 13.0272 15.0217V12.7655H15.2835C15.5826 12.7655 15.8696 12.6467 16.0811 12.4351C16.2927 12.2236 16.4116 11.9366 16.4116 11.6374C16.4116 11.3382 16.2927 11.0513 16.0811 10.8397C15.8696 10.6282 15.5826 10.5093 15.2835 10.5093Z" fill="white"/>
</svg>
