<svg width="21" height="15" viewBox="0 0 21 15" fill="none" xmlns="http://www.w3.org/2000/svg">
<path d="M20.4344 7.3419C20.4276 6.7124 20.1313 6.11056 19.6098 5.66678L13.6145 0.521766C13.3526 0.298914 12.9984 0.173828 12.6292 0.173828C12.26 0.173828 11.9058 0.298914 11.644 0.521766C11.513 0.632997 11.409 0.765333 11.3381 0.911139C11.2671 1.05695 11.2306 1.21334 11.2306 1.37129C11.2306 1.52925 11.2671 1.68564 11.3381 1.83144C11.409 1.97725 11.513 2.10958 11.644 2.22082L16.2418 6.14538H2.26666C1.89601 6.14538 1.54055 6.27144 1.27846 6.49583C1.01638 6.72022 0.869141 7.02456 0.869141 7.3419C0.869141 7.65923 1.01638 7.96357 1.27846 8.18796C1.54055 8.41235 1.89601 8.53841 2.26666 8.53841H16.2418L11.644 12.4749C11.3808 12.6987 11.2323 13.0027 11.2309 13.3202C11.2296 13.6377 11.3757 13.9427 11.637 14.168C11.8983 14.3933 12.2534 14.5205 12.6243 14.5216C12.9951 14.5228 13.3513 14.3977 13.6145 14.174L19.6098 9.02898C20.1347 8.58226 20.4312 7.97554 20.4344 7.3419Z" fill="#121212"/>
</svg>
