<svg width="18" height="19" viewBox="0 0 18 19" fill="none" xmlns="http://www.w3.org/2000/svg">
<g clip-path="url(#clip0_1912_5737)">
<path d="M9.75194 1.2512C9.75194 1.05229 9.83096 0.86152 9.97161 0.720868C10.1123 0.580215 10.303 0.501198 10.5019 0.501198C12.4904 0.503381 14.3968 1.29426 15.8028 2.70031C17.2089 4.10636 17.9998 6.01274 18.0019 8.0012C18.0019 8.20011 17.9229 8.39088 17.7823 8.53153C17.6416 8.67218 17.4509 8.7512 17.2519 8.7512C17.053 8.7512 16.8623 8.67218 16.7216 8.53153C16.581 8.39088 16.5019 8.20011 16.5019 8.0012C16.5002 6.41045 15.8674 4.88536 14.7426 3.76053C13.6178 2.6357 12.0927 2.00298 10.5019 2.0012C10.303 2.0012 10.1123 1.92218 9.97161 1.78153C9.83096 1.64088 9.75194 1.45011 9.75194 1.2512ZM10.5019 5.0012C11.2976 5.0012 12.0607 5.31727 12.6233 5.87988C13.1859 6.44249 13.5019 7.20555 13.5019 8.0012C13.5019 8.20011 13.581 8.39088 13.7216 8.53153C13.8623 8.67218 14.053 8.7512 14.2519 8.7512C14.4509 8.7512 14.6416 8.67218 14.7823 8.53153C14.9229 8.39088 15.0019 8.20011 15.0019 8.0012C15.0008 6.80809 14.5263 5.66419 13.6826 4.82053C12.839 3.97688 11.6951 3.50239 10.5019 3.5012C10.303 3.5012 10.1123 3.58022 9.97161 3.72087C9.83096 3.86152 9.75194 4.05229 9.75194 4.2512C9.75194 4.45011 9.83096 4.64088 9.97161 4.78153C10.1123 4.92218 10.303 5.0012 10.5019 5.0012ZM17.3217 13.0554C17.7563 13.4913 18.0004 14.0817 18.0004 14.6972C18.0004 15.3127 17.7563 15.9031 17.3217 16.3389L16.6392 17.1257C10.4967 23.0064 -4.45081 8.0627 1.33919 1.9007L2.20169 1.1507C2.63802 0.728206 3.22314 0.494485 3.83047 0.500099C4.4378 0.505713 5.0185 0.750212 5.44694 1.1807C5.47019 1.20395 6.85994 3.0092 6.85994 3.0092C7.27232 3.44242 7.50187 4.01789 7.50089 4.616C7.49992 5.21411 7.26848 5.78883 6.85469 6.2207L5.98619 7.3127C6.46683 8.48053 7.17349 9.54188 8.06557 10.4358C8.95766 11.3297 10.0176 12.0385 11.1844 12.5214L12.2832 11.6477C12.7151 11.2342 13.2897 11.0031 13.8877 11.0022C14.4856 11.0014 15.0609 11.2309 15.4939 11.6432C15.4939 11.6432 17.2984 13.0322 17.3217 13.0554ZM16.2897 14.1459C16.2897 14.1459 14.4949 12.7652 14.4717 12.7419C14.3172 12.5887 14.1084 12.5028 13.8908 12.5028C13.6732 12.5028 13.4645 12.5887 13.3099 12.7419C13.2897 12.7629 11.7769 13.9682 11.7769 13.9682C11.675 14.0493 11.5537 14.1025 11.4249 14.1225C11.2962 14.1425 11.1644 14.1286 11.0427 14.0822C9.53104 13.5194 8.158 12.6383 7.01657 11.4985C5.87514 10.3588 4.99199 8.98702 4.42694 7.4762C4.37684 7.35279 4.36051 7.21827 4.37962 7.08645C4.39873 6.95464 4.4526 6.83029 4.53569 6.7262C4.53569 6.7262 5.74094 5.2127 5.76119 5.1932C5.91439 5.03869 6.00035 4.82991 6.00035 4.61232C6.00035 4.39474 5.91439 4.18596 5.76119 4.03145C5.73794 4.00895 4.35719 2.2127 4.35719 2.2127C4.20037 2.07208 3.9957 1.99677 3.78513 2.00221C3.57456 2.00765 3.37405 2.09342 3.22469 2.24195L2.36219 2.99195C-1.86931 8.07995 11.0839 20.3147 15.5427 16.1012L16.2259 15.3137C16.3861 15.1654 16.4822 14.9606 16.4941 14.7427C16.506 14.5248 16.4327 14.3108 16.2897 14.1459Z" fill="#E7A827"/>
</g>
<defs>
<clipPath id="clip0_1912_5737">
<rect width="18" height="18" fill="white" transform="translate(0 0.5)"/>
</clipPath>
</defs>
</svg>
