<svg width="645" height="443" viewBox="0 0 645 443" fill="none" xmlns="http://www.w3.org/2000/svg">
<g opacity="0.5">
<path opacity="0.2" d="M9 107H645" stroke="#121212"/>
<path opacity="0.2" d="M9 40H645" stroke="#121212"/>
<path opacity="0.2" d="M9 174H645" stroke="#121212"/>
<path opacity="0.2" d="M9 308H645" stroke="#121212"/>
<path opacity="0.2" d="M9 241H645" stroke="#121212"/>
<path opacity="0.2" d="M9 375H645" stroke="#121212"/>
<path opacity="0.2" d="M9 442H645" stroke="#121212"/>
</g>
<path d="M38 174L615 40V442H38V174Z" fill="url(#paint0_linear_1198_4915)"/>
<circle cx="38" cy="174" r="5" fill="#E7A827"/>
<circle cx="327" cy="107" r="5" fill="#E7A827"/>
<path d="M38 174V441.5" stroke="#E7A827"/>
<path d="M327 107L327 441" stroke="#E7A827"/>
<path d="M615 40L615 442" stroke="#E7A827"/>
<path d="M38 174L615 40" stroke="#E7A827"/>
<path d="M20.661 150.384V152.166H16.917V155.91H15.135V152.166H11.391V150.384H15.135V146.64H16.917V150.384H20.661ZM22.7137 148.584C23.8777 148.128 24.7057 147.486 25.1977 146.658C25.6897 145.818 25.9417 144.702 25.9537 143.31H30.5077V156H28.1857V145.29L28.6177 143.904H28.0057C27.9457 144.768 27.8437 145.512 27.6997 146.136C27.5677 146.76 27.3457 147.384 27.0337 148.008C26.7217 148.62 26.2717 149.148 25.6837 149.592C25.0957 150.024 24.3697 150.378 23.5057 150.654L22.7137 148.584ZM34.18 144.93C35.212 143.73 36.64 143.13 38.464 143.13C40.288 143.13 41.71 143.73 42.73 144.93C43.762 146.13 44.278 147.702 44.278 149.646C44.278 151.602 43.762 153.18 42.73 154.38C41.71 155.58 40.288 156.18 38.464 156.18C36.64 156.18 35.212 155.58 34.18 154.38C33.148 153.18 32.632 151.602 32.632 149.646C32.632 147.69 33.148 146.118 34.18 144.93ZM38.464 145.146C37.336 145.146 36.466 145.548 35.854 146.352C35.242 147.144 34.936 148.242 34.936 149.646C34.936 150.522 35.05 151.266 35.278 151.878L40.606 145.848C40.03 145.38 39.316 145.146 38.464 145.146ZM38.464 154.164C39.592 154.164 40.456 153.768 41.056 152.976C41.668 152.172 41.974 151.062 41.974 149.646C41.974 148.794 41.866 148.056 41.65 147.432L36.304 153.444C36.88 153.924 37.6 154.164 38.464 154.164ZM58.1401 141.474L59.8141 142.104L53.9821 158.088L52.3081 157.44L58.1401 141.474ZM53.3881 149.43C52.6441 150.198 51.6841 150.582 50.5081 150.582C49.3321 150.582 48.3721 150.198 47.6281 149.43C46.8841 148.65 46.5121 147.702 46.5121 146.586C46.5121 145.47 46.8841 144.528 47.6281 143.76C48.3721 142.98 49.3321 142.59 50.5081 142.59C51.6841 142.59 52.6441 142.98 53.3881 143.76C54.1321 144.528 54.5041 145.47 54.5041 146.586C54.5041 147.702 54.1321 148.65 53.3881 149.43ZM50.5081 148.8C51.1561 148.8 51.6901 148.584 52.1101 148.152C52.5301 147.72 52.7401 147.198 52.7401 146.586C52.7401 145.974 52.5301 145.452 52.1101 145.02C51.6901 144.588 51.1561 144.372 50.5081 144.372C49.8721 144.372 49.3441 144.588 48.9241 145.02C48.5041 145.452 48.2941 145.974 48.2941 146.586C48.2941 147.198 48.5041 147.72 48.9241 148.152C49.3441 148.584 49.8721 148.8 50.5081 148.8ZM64.4941 155.748C63.7501 156.516 62.7901 156.9 61.6141 156.9C60.4381 156.9 59.4781 156.516 58.7341 155.748C57.9901 154.968 57.6181 154.02 57.6181 152.904C57.6181 151.788 57.9901 150.846 58.7341 150.078C59.4781 149.298 60.4381 148.908 61.6141 148.908C62.7901 148.908 63.7501 149.298 64.4941 150.078C65.2381 150.846 65.6101 151.788 65.6101 152.904C65.6101 154.02 65.2381 154.968 64.4941 155.748ZM60.0121 154.47C60.4321 154.902 60.9661 155.118 61.6141 155.118C62.2621 155.118 62.7901 154.902 63.1981 154.47C63.6181 154.038 63.8281 153.516 63.8281 152.904C63.8281 152.292 63.6181 151.77 63.1981 151.338C62.7901 150.906 62.2621 150.69 61.6141 150.69C60.9661 150.69 60.4321 150.906 60.0121 151.338C59.6041 151.77 59.4001 152.292 59.4001 152.904C59.4001 153.516 59.6041 154.038 60.0121 154.47Z" fill="#121212"/>
<path d="M309.661 83.384V85.166H305.917V88.91H304.135V85.166H300.391V83.384H304.135V79.64H305.917V83.384H309.661ZM311.714 81.584C312.878 81.128 313.706 80.486 314.198 79.658C314.69 78.818 314.942 77.702 314.954 76.31H319.508V89H317.186V78.29L317.618 76.904H317.006C316.946 77.768 316.844 78.512 316.7 79.136C316.568 79.76 316.346 80.384 316.034 81.008C315.722 81.62 315.272 82.148 314.684 82.592C314.096 83.024 313.37 83.378 312.506 83.654L311.714 81.584ZM323.18 77.93C324.212 76.73 325.64 76.13 327.464 76.13C329.288 76.13 330.71 76.73 331.73 77.93C332.762 79.13 333.278 80.702 333.278 82.646C333.278 84.602 332.762 86.18 331.73 87.38C330.71 88.58 329.288 89.18 327.464 89.18C325.64 89.18 324.212 88.58 323.18 87.38C322.148 86.18 321.632 84.602 321.632 82.646C321.632 80.69 322.148 79.118 323.18 77.93ZM327.464 78.146C326.336 78.146 325.466 78.548 324.854 79.352C324.242 80.144 323.936 81.242 323.936 82.646C323.936 83.522 324.05 84.266 324.278 84.878L329.606 78.848C329.03 78.38 328.316 78.146 327.464 78.146ZM327.464 87.164C328.592 87.164 329.456 86.768 330.056 85.976C330.668 85.172 330.974 84.062 330.974 82.646C330.974 81.794 330.866 81.056 330.65 80.432L325.304 86.444C325.88 86.924 326.6 87.164 327.464 87.164ZM347.14 74.474L348.814 75.104L342.982 91.088L341.308 90.44L347.14 74.474ZM342.388 82.43C341.644 83.198 340.684 83.582 339.508 83.582C338.332 83.582 337.372 83.198 336.628 82.43C335.884 81.65 335.512 80.702 335.512 79.586C335.512 78.47 335.884 77.528 336.628 76.76C337.372 75.98 338.332 75.59 339.508 75.59C340.684 75.59 341.644 75.98 342.388 76.76C343.132 77.528 343.504 78.47 343.504 79.586C343.504 80.702 343.132 81.65 342.388 82.43ZM339.508 81.8C340.156 81.8 340.69 81.584 341.11 81.152C341.53 80.72 341.74 80.198 341.74 79.586C341.74 78.974 341.53 78.452 341.11 78.02C340.69 77.588 340.156 77.372 339.508 77.372C338.872 77.372 338.344 77.588 337.924 78.02C337.504 78.452 337.294 78.974 337.294 79.586C337.294 80.198 337.504 80.72 337.924 81.152C338.344 81.584 338.872 81.8 339.508 81.8ZM353.494 88.748C352.75 89.516 351.79 89.9 350.614 89.9C349.438 89.9 348.478 89.516 347.734 88.748C346.99 87.968 346.618 87.02 346.618 85.904C346.618 84.788 346.99 83.846 347.734 83.078C348.478 82.298 349.438 81.908 350.614 81.908C351.79 81.908 352.75 82.298 353.494 83.078C354.238 83.846 354.61 84.788 354.61 85.904C354.61 87.02 354.238 87.968 353.494 88.748ZM349.012 87.47C349.432 87.902 349.966 88.118 350.614 88.118C351.262 88.118 351.79 87.902 352.198 87.47C352.618 87.038 352.828 86.516 352.828 85.904C352.828 85.292 352.618 84.77 352.198 84.338C351.79 83.906 351.262 83.69 350.614 83.69C349.966 83.69 349.432 83.906 349.012 84.338C348.604 84.77 348.4 85.292 348.4 85.904C348.4 86.516 348.604 87.038 349.012 87.47Z" fill="#121212"/>
<path d="M597.661 16.384V18.166H593.917V21.91H592.135V18.166H588.391V16.384H592.135V12.64H593.917V16.384H597.661ZM599.714 14.584C600.878 14.128 601.706 13.486 602.198 12.658C602.69 11.818 602.942 10.702 602.954 9.31H607.508V22H605.186V11.29L605.618 9.904H605.006C604.946 10.768 604.844 11.512 604.7 12.136C604.568 12.76 604.346 13.384 604.034 14.008C603.722 14.62 603.272 15.148 602.684 15.592C602.096 16.024 601.37 16.378 600.506 16.654L599.714 14.584ZM611.18 10.93C612.212 9.73 613.64 9.13 615.464 9.13C617.288 9.13 618.71 9.73 619.73 10.93C620.762 12.13 621.278 13.702 621.278 15.646C621.278 17.602 620.762 19.18 619.73 20.38C618.71 21.58 617.288 22.18 615.464 22.18C613.64 22.18 612.212 21.58 611.18 20.38C610.148 19.18 609.632 17.602 609.632 15.646C609.632 13.69 610.148 12.118 611.18 10.93ZM615.464 11.146C614.336 11.146 613.466 11.548 612.854 12.352C612.242 13.144 611.936 14.242 611.936 15.646C611.936 16.522 612.05 17.266 612.278 17.878L617.606 11.848C617.03 11.38 616.316 11.146 615.464 11.146ZM615.464 20.164C616.592 20.164 617.456 19.768 618.056 18.976C618.668 18.172 618.974 17.062 618.974 15.646C618.974 14.794 618.866 14.056 618.65 13.432L613.304 19.444C613.88 19.924 614.6 20.164 615.464 20.164ZM635.14 7.474L636.814 8.104L630.982 24.088L629.308 23.44L635.14 7.474ZM630.388 15.43C629.644 16.198 628.684 16.582 627.508 16.582C626.332 16.582 625.372 16.198 624.628 15.43C623.884 14.65 623.512 13.702 623.512 12.586C623.512 11.47 623.884 10.528 624.628 9.76C625.372 8.98 626.332 8.59 627.508 8.59C628.684 8.59 629.644 8.98 630.388 9.76C631.132 10.528 631.504 11.47 631.504 12.586C631.504 13.702 631.132 14.65 630.388 15.43ZM627.508 14.8C628.156 14.8 628.69 14.584 629.11 14.152C629.53 13.72 629.74 13.198 629.74 12.586C629.74 11.974 629.53 11.452 629.11 11.02C628.69 10.588 628.156 10.372 627.508 10.372C626.872 10.372 626.344 10.588 625.924 11.02C625.504 11.452 625.294 11.974 625.294 12.586C625.294 13.198 625.504 13.72 625.924 14.152C626.344 14.584 626.872 14.8 627.508 14.8ZM641.494 21.748C640.75 22.516 639.79 22.9 638.614 22.9C637.438 22.9 636.478 22.516 635.734 21.748C634.99 20.968 634.618 20.02 634.618 18.904C634.618 17.788 634.99 16.846 635.734 16.078C636.478 15.298 637.438 14.908 638.614 14.908C639.79 14.908 640.75 15.298 641.494 16.078C642.238 16.846 642.61 17.788 642.61 18.904C642.61 20.02 642.238 20.968 641.494 21.748ZM637.012 20.47C637.432 20.902 637.966 21.118 638.614 21.118C639.262 21.118 639.79 20.902 640.198 20.47C640.618 20.038 640.828 19.516 640.828 18.904C640.828 18.292 640.618 17.77 640.198 17.338C639.79 16.906 639.262 16.69 638.614 16.69C637.966 16.69 637.432 16.906 637.012 17.338C636.604 17.77 636.4 18.292 636.4 18.904C636.4 19.516 636.604 20.038 637.012 20.47Z" fill="#121212"/>
<path d="M1.12741 10.112C2.67941 9.504 3.78341 8.648 4.43941 7.544C5.09541 6.424 5.43141 4.936 5.44741 3.08H11.5194V20H8.42341V5.72L8.99941 3.872H8.18341C8.10341 5.024 7.96741 6.016 7.77541 6.848C7.59941 7.68 7.30341 8.512 6.88741 9.344C6.47141 10.16 5.87141 10.864 5.08741 11.456C4.30341 12.032 3.33541 12.504 2.18341 12.872L1.12741 10.112ZM14.1838 13.544H17.2798C17.2798 15.048 17.6158 16.096 18.2878 16.688C18.9598 17.264 20.0958 17.552 21.6958 17.552C23.0398 17.552 24.0078 17.344 24.5998 16.928C25.2078 16.512 25.5118 15.864 25.5118 14.984C25.5118 13.368 24.6078 12.56 22.7998 12.56H20.4478V9.872H22.7998C24.4478 9.872 25.2718 9.176 25.2718 7.784C25.2718 7.032 24.9998 6.472 24.4558 6.104C23.9118 5.72 22.9918 5.528 21.6958 5.528C20.1438 5.528 19.0558 5.776 18.4318 6.272C17.8238 6.768 17.5198 7.592 17.5198 8.744H14.4238C14.4238 6.744 15.0638 5.264 16.3438 4.304C17.6398 3.328 19.4238 2.84 21.6958 2.84C23.7438 2.84 25.3678 3.24 26.5678 4.04C27.7678 4.84 28.3678 5.952 28.3678 7.376C28.3678 8.464 28.0478 9.256 27.4078 9.752C26.7838 10.248 25.8638 10.6 24.6478 10.808V11.6C25.2718 11.712 25.7838 11.832 26.1838 11.96C26.5998 12.088 27.0078 12.288 27.4078 12.56C27.8238 12.816 28.1278 13.176 28.3198 13.64C28.5118 14.104 28.6078 14.68 28.6078 15.368C28.6078 16.936 27.9758 18.144 26.7118 18.992C25.4638 19.824 23.7918 20.24 21.6958 20.24C19.3758 20.24 17.5438 19.712 16.1998 18.656C14.8558 17.584 14.1838 15.88 14.1838 13.544ZM33.1033 5.24C34.4793 3.64 36.3833 2.84 38.8153 2.84C41.2473 2.84 43.1433 3.64 44.5033 5.24C45.8793 6.84 46.5673 8.936 46.5673 11.528C46.5673 14.136 45.8793 16.24 44.5033 17.84C43.1433 19.44 41.2473 20.24 38.8153 20.24C36.3833 20.24 34.4793 19.44 33.1033 17.84C31.7273 16.24 31.0393 14.136 31.0393 11.528C31.0393 8.92 31.7273 6.824 33.1033 5.24ZM38.8153 5.528C37.3113 5.528 36.1513 6.064 35.3353 7.136C34.5193 8.192 34.1113 9.656 34.1113 11.528C34.1113 12.696 34.2633 13.688 34.5673 14.504L41.6713 6.464C40.9033 5.84 39.9513 5.528 38.8153 5.528ZM38.8153 17.552C40.3193 17.552 41.4713 17.024 42.2713 15.968C43.0873 14.896 43.4953 13.416 43.4953 11.528C43.4953 10.392 43.3513 9.408 43.0633 8.576L35.9353 16.592C36.7033 17.232 37.6633 17.552 38.8153 17.552ZM65.0501 0.631999L67.2821 1.472L59.5061 22.784L57.2741 21.92L65.0501 0.631999ZM58.7141 11.24C57.7221 12.264 56.4421 12.776 54.8741 12.776C53.3061 12.776 52.0261 12.264 51.0341 11.24C50.0421 10.2 49.5461 8.936 49.5461 7.448C49.5461 5.96 50.0421 4.704 51.0341 3.68C52.0261 2.64 53.3061 2.12 54.8741 2.12C56.4421 2.12 57.7221 2.64 58.7141 3.68C59.7061 4.704 60.2021 5.96 60.2021 7.448C60.2021 8.936 59.7061 10.2 58.7141 11.24ZM54.8741 10.4C55.7381 10.4 56.4501 10.112 57.0101 9.536C57.5701 8.96 57.8501 8.264 57.8501 7.448C57.8501 6.632 57.5701 5.936 57.0101 5.36C56.4501 4.784 55.7381 4.496 54.8741 4.496C54.0261 4.496 53.3221 4.784 52.7621 5.36C52.2021 5.936 51.9221 6.632 51.9221 7.448C51.9221 8.264 52.2021 8.96 52.7621 9.536C53.3221 10.112 54.0261 10.4 54.8741 10.4ZM73.5221 19.664C72.5301 20.688 71.2501 21.2 69.6821 21.2C68.1141 21.2 66.8341 20.688 65.8421 19.664C64.8501 18.624 64.3541 17.36 64.3541 15.872C64.3541 14.384 64.8501 13.128 65.8421 12.104C66.8341 11.064 68.1141 10.544 69.6821 10.544C71.2501 10.544 72.5301 11.064 73.5221 12.104C74.5141 13.128 75.0101 14.384 75.0101 15.872C75.0101 17.36 74.5141 18.624 73.5221 19.664ZM67.5461 17.96C68.1061 18.536 68.8181 18.824 69.6821 18.824C70.5461 18.824 71.2501 18.536 71.7941 17.96C72.3541 17.384 72.6341 16.688 72.6341 15.872C72.6341 15.056 72.3541 14.36 71.7941 13.784C71.2501 13.208 70.5461 12.92 69.6821 12.92C68.8181 12.92 68.1061 13.208 67.5461 13.784C67.0021 14.36 66.7301 15.056 66.7301 15.872C66.7301 16.688 67.0021 17.384 67.5461 17.96Z" fill="#121212"/>
<path d="M615 40L38 40" stroke="#E7A827"/>
<circle cx="615" cy="40" r="5" fill="#E7A827"/>
<circle cx="38" cy="40" r="5" fill="#E7A827"/>
<defs>
<linearGradient id="paint0_linear_1198_4915" x1="327" y1="489.5" x2="327" y2="40" gradientUnits="userSpaceOnUse">
<stop stop-color="#E7A827" stop-opacity="0.3"/>
<stop offset="1" stop-color="white" stop-opacity="0"/>
</linearGradient>
</defs>
</svg>
